<svg viewBox="0 0 50 50" xmlns="http://www.w3.org/2000/svg"><g fill="#2bb6bd"><path d="m39.9 17.56c-3.3-12.43-10.42-15.69-15.82-16.23a18.5 18.5 0 0 0 -18.32 10.75c-2.29 5-2 10.53.84 16a28 28 0 0 0 4.75 6.61v14.2h19.56v-9.19l8.5.27.35-11.15h6.24zm-1.6 9.76-.3 11.11-8.55-.27v9.23h-16.6v-13.3l-.24-.22c-.1-.1-10.55-10.13-5.49-21.16a17 17 0 0 1 16.82-9.89c4.93.5 11.46 3.54 14.54 15.18l5 9.29z"/><path d="m13.07 16.77a3.37 3.37 0 1 0 -1.5-.05v6.78l4.88 4.88v7.75h1.55v-8.37l-4.88-4.88zm-2.51-3.26a1.83 1.83 0 1 1 1.83 1.83 1.83 1.83 0 0 1 -1.83-1.83z"/><path d="m31.12 10.18a3.33 3.33 0 0 0 -.69 6.59v6.11l-4.87 4.88v8.37h1.5v-7.75l4.87-4.88v-6.78a3.32 3.32 0 0 0 -.81-6.54zm0 5.16a1.83 1.83 0 1 1 1.88-1.83 1.83 1.83 0 0 1 -1.88 1.83z"/><path d="m22.07 16.07a3.33 3.33 0 0 0 -.75 6.57v13.49h1.5v-13.49a3.33 3.33 0 0 0 -.75-6.57zm0 5.17a1.84 1.84 0 1 1 1.83-1.84 1.84 1.84 0 0 1 -1.83 1.84z"/></g></svg>