<svg viewBox="0 0 50 50" xmlns="http://www.w3.org/2000/svg"><g fill="#2bb6bd"><path d="m23.89 35.72a2.4 2.4 0 0 1 -2.4-2.54 2.44 2.44 0 0 1 2.4-2.6 2.13 2.13 0 0 1 2 1.34l1.27-.46a3.44 3.44 0 0 0 -3.3-2.2 3.91 3.91 0 0 0 0 7.81 3.62 3.62 0 0 0 3.39-2l-1.25-.63a2.35 2.35 0 0 1 -2.11 1.28z"/><path d="m33.64 30.07a2.81 2.81 0 0 0 -1.95-.65h-3.14v7.53h1.26v-2.95h1.74l1.29 2.94h1.42l-1.43-3.15a2.58 2.58 0 0 0 .92-.66 2.35 2.35 0 0 0 -.11-3.06zm-1 2.35a1.2 1.2 0 0 1 -1.06.43h-1.77v-2.24h1.81a1.25 1.25 0 0 1 1 .33 1.23 1.23 0 0 1 .06 1.48z"/><path d="m39.32 35.44-2.51-6.03h-1.24v7.53h1.24v-4.36l1.89 4.36h1.24l1.88-4.36v4.36h1.25v-7.53h-1.25z"/><path d="m24.47 18.43a11.12 11.12 0 0 0 -.45-2.5l1.44-1a1.19 1.19 0 0 0 .52-.76 1.22 1.22 0 0 0 -.18-.91l-2.06-3.09a1.22 1.22 0 0 0 -.74-.47 1.23 1.23 0 0 0 -.9.18l-1.44 1a11 11 0 0 0 -1.95-1.3l.29-1.75a1.22 1.22 0 0 0 -1-1.41l-3.64-.73a1.22 1.22 0 0 0 -1.36.95l-.34 1.71a11.28 11.28 0 0 0 -2.3.45l-1-1.45a1.2 1.2 0 0 0 -1.6-.35l-3.09 2.08a1.2 1.2 0 0 0 -.33 1.66l1 1.44a10.56 10.56 0 0 0 -1.31 2l-1.71-.34a1.21 1.21 0 0 0 -1.41.94l-.76 3.6a1.21 1.21 0 0 0 1 1.4l1.71.35a11.28 11.28 0 0 0 .45 2.3l-1.45 1a1.2 1.2 0 0 0 -.33 1.67l2.06 3.09a1.2 1.2 0 0 0 1.66.33l1.44-1a10.81 10.81 0 0 0 2 1.31l-.35 1.71a1.22 1.22 0 0 0 .95 1.41l3.64.72a1.87 1.87 0 0 0 .34 0h.17v11.79h36.48v-26zm24 5.09h-33.62v-3.59h33.57zm-35.34 7.67-3.35-.67.52-2.52-.54-.24a9.19 9.19 0 0 1 -2.54-1.76l-.43-.4-2.17 1.46-1.73-2.58 2.18-1.48-.21-.56a9.46 9.46 0 0 1 -.59-3v-.59l-2.56-.52.6-3.05 2.56.51.25-.54a9.44 9.44 0 0 1 1.7-2.53l.4-.43-1.46-2.13 2.58-1.73 1.45 2.18.56-.21a9.19 9.19 0 0 1 3-.59h.59l.52-2.57 3.05.61-.51 2.54.54.25a9.6 9.6 0 0 1 2.53 1.7l.43.4 2.17-1.44 1.73 2.58-2.18 1.45.21.56a9.54 9.54 0 0 1 .57 2.54h-9.65v12.75a.89.89 0 0 1 -.22.01zm1.72 11.81v-18h33.57v18z"/><path d="m39.15 22.51a1 1 0 1 0 -1-1 1 1 0 0 0 1 1z"/><path d="m42.92 22.51a1 1 0 1 0 -1-1 1 1 0 0 0 1 1z"/><path d="m46.68 22.51a1 1 0 1 0 -1-1 1 1 0 0 0 1 1z"/></g></svg>