<svg viewBox="0 0 50 50" xmlns="http://www.w3.org/2000/svg"><g fill="#2bb6bd"><path d="m47.86 22.08a3.82 3.82 0 0 0 -5.4.21 3.71 3.71 0 0 0 -.92 1.83h-8.62a8.15 8.15 0 0 0 -1.82-4.45l6.13-6.23a3.78 3.78 0 0 0 2.07.61h.18a3.82 3.82 0 0 0 2.39-6.64 3.76 3.76 0 0 0 -2.75-1 3.8 3.8 0 0 0 -3 5.94l-6.12 6.23a8.18 8.18 0 0 0 -4.54-1.91v-8.44a3.82 3.82 0 1 0 -3.36-.94 3.77 3.77 0 0 0 1.9.93v8.45a8.29 8.29 0 0 0 -4.7 2l-6.3-5.84a3.74 3.74 0 0 0 .57-2.26 3.82 3.82 0 1 0 -3.81 4.09h.24a3.73 3.73 0 0 0 1.92-.7l6.3 5.89a8.15 8.15 0 0 0 -1.7 4.28h-8.62a3.74 3.74 0 0 0 -1.14-2 3.82 3.82 0 0 0 -5.19 5.61 3.85 3.85 0 0 0 2.6 1h.15a3.77 3.77 0 0 0 2.68-1.26 3.86 3.86 0 0 0 .93-1.83h8.61a8.18 8.18 0 0 0 2 4.63l-5.95 6a3.81 3.81 0 0 0 -4.93.72 3.76 3.76 0 0 0 -1 2.75 3.82 3.82 0 0 0 3.81 3.64h.18a3.8 3.8 0 0 0 3-6l6-6.06a8.19 8.19 0 0 0 4.35 1.76v8.78a3.88 3.88 0 1 0 1.53 0v-8.78a8.25 8.25 0 0 0 4.7-2l6.29 5.88a3.8 3.8 0 0 0 3.24 5.82h.24a3.84 3.84 0 0 0 2.62-1.31 3.81 3.81 0 0 0 -5.08-5.61l-6.29-5.89a8.2 8.2 0 0 0 1.69-4.28h8.61a3.79 3.79 0 0 0 3.73 3.05h.15a3.77 3.77 0 0 0 2.65-1.22 3.82 3.82 0 0 0 -.22-5.45zm-42 4.36a2.34 2.34 0 0 1 -1.59.73 2.2 2.2 0 0 1 -1.64-.61 2.29 2.29 0 0 1 -.13-3.23 2.29 2.29 0 0 1 3.23-.12 2.29 2.29 0 0 1 .12 3.23zm33.33-18.44h.11a2.29 2.29 0 0 1 .11 4.57 2.29 2.29 0 0 1 -.22-4.57zm-16.76-3.43a2.27 2.27 0 0 1 .57-1.64 2.3 2.3 0 0 1 1.68-.73 2.28 2.28 0 0 1 1.71 3.8 2.29 2.29 0 0 1 -4-1.47zm-12.55 8.55a2.29 2.29 0 1 1 -.32-4.56h.16a2.29 2.29 0 0 1 .16 4.57zm.71 28.69a2.28 2.28 0 1 1 -.22-4.56h.11a2.26 2.26 0 0 1 1.54.6 2.23 2.23 0 0 1 .74 1.58 2.28 2.28 0 0 1 -2.17 2.38zm15.8 5.34a2.28 2.28 0 1 1 -.12-3.23 2.29 2.29 0 0 1 .12 3.23zm13.16-10.5h.16a2.28 2.28 0 0 1 2.29 2.12 2.23 2.23 0 0 1 -.55 1.65 2.28 2.28 0 1 1 -3.45-3 2.25 2.25 0 0 1 1.55-.77zm-14.83-5a6.72 6.72 0 1 1 6.71-6.72 6.73 6.73 0 0 1 -6.71 6.67zm22.22-5.16a2.28 2.28 0 1 1 -.12-3.23 2.29 2.29 0 0 1 .12 3.18z"/><path d="m24.89 19.43a5.46 5.46 0 1 0 5.45 5.45 5.46 5.46 0 0 0 -5.45-5.45zm0 9.37a3.92 3.92 0 1 1 3.92-3.92 3.93 3.93 0 0 1 -3.92 3.92z"/></g></svg>