<svg viewBox="0 0 50 50" xmlns="http://www.w3.org/2000/svg"><g fill="#2bb6bd"><path d="m12 23.48a.86.86 0 0 0 -.88-.57.74.74 0 0 0 -.76.5.51.51 0 0 0 .47.63l.66.12a1.32 1.32 0 0 1 1.22 1.34 1.45 1.45 0 0 1 -1.71 1.35 1.52 1.52 0 0 1 -1.67-1.23l.75-.11c.07.39.53.6 1 .6s.81-.24.81-.59a.58.58 0 0 0 -.44-.53 7 7 0 0 0 -.88-.19 1.21 1.21 0 0 1 -1-1.27 1.45 1.45 0 0 1 1.52-1.37 1.62 1.62 0 0 1 1.66 1.12z"/><path d="m11 27.05a1.7 1.7 0 0 1 -1.87-1.41v-.19l1.13-.17v.19c0 .27.42.44.76.44s.61-.13.61-.39a.38.38 0 0 0 -.3-.34 4.27 4.27 0 0 0 -.63-.18h-.17a1.4 1.4 0 0 1 -1.19-1.46 1.65 1.65 0 0 1 1.72-1.54 1.82 1.82 0 0 1 1.85 1.27v.19l-1.13.3-.05-.19a.68.68 0 0 0 -.69-.42.53.53 0 0 0 -.56.35.26.26 0 0 0 0 .22.4.4 0 0 0 .28.16c.19.05.35.07.51.1h.15a1.51 1.51 0 0 1 1.38 1.53 1.66 1.66 0 0 1 -1.8 1.54zm-1.4-1.26a1.4 1.4 0 0 0 1.44.86c.69 0 1.43-.36 1.43-1.15a1.11 1.11 0 0 0 -1.05-1.14h-.15c-.16 0-.34-.06-.53-.11a.81.81 0 0 1 -.53-.33.65.65 0 0 1 -.08-.53.93.93 0 0 1 .95-.66 1.12 1.12 0 0 1 1 .53l.38-.1a1.5 1.5 0 0 0 -1.4-.78 1.26 1.26 0 0 0 -1.32 1.17 1 1 0 0 0 .87 1.07h.16a6.39 6.39 0 0 1 .74.17.78.78 0 0 1 .58.72c0 .45-.43.79-1 .79a1.18 1.18 0 0 1 -1.09-.57z"/><path d="m16.16 25.66h-1.82l-.43 1.12h-.91l1.82-4.53h.83l1.82 4.53h-.9zm-.26-.66-.65-1.69-.65 1.69z"/><path d="m17.78 27h-1.33l-.45-1.14h-1.52l-.43 1.14h-1.33l2-4.93h1.08l.07.12zm-1.05-.4h.46l-1.66-4.13h-.53l-1.65 4.13h.46l.42-1.12h2.1zm-.54-1.4h-1.88l.94-2.45zm-1.3-.4h.72l-.36-.93z"/><path d="m20.83 26v.74h-2.75v-4.49h.75v3.75z"/><path d="m21 27h-3.12v-4.95h1.12v3.79h2zm-2.75-.4h2.35v-.34h-2v-3.81h-.35z"/><path d="m24.36 26v.74h-2.84v-4.49h2.83v.75h-2.07v1.13h1.87v.72h-1.87v1.15z"/><path d="m24.55 27h-3.23v-4.95h3.23v1.15h-2.07v.73h1.87v1.12h-1.87v.79h2.08zm-2.83-.4h2.43v-.34h-2.07v-1.61h1.86v-.32h-1.86v-1.53h2.07v-.35h-2.43z"/><path d="m27.51 23.48a.86.86 0 0 0 -.88-.57.74.74 0 0 0 -.76.5.51.51 0 0 0 .47.63l.66.12a1.33 1.33 0 0 1 1.22 1.34 1.45 1.45 0 0 1 -1.63 1.35 1.52 1.52 0 0 1 -1.67-1.23l.75-.11c.07.39.53.6 1 .6s.81-.24.81-.59a.58.58 0 0 0 -.48-.52 7.39 7.39 0 0 0 -.88-.19 1.21 1.21 0 0 1 -1-1.27 1.45 1.45 0 0 1 1.52-1.37 1.62 1.62 0 0 1 1.66 1.12z"/><path d="m26.59 27.05a1.7 1.7 0 0 1 -1.87-1.41v-.19l1.13-.17v.19c.05.27.42.44.76.44s.61-.13.61-.39a.38.38 0 0 0 -.3-.34 6.52 6.52 0 0 0 -.69-.16h-.17a1.4 1.4 0 0 1 -1.19-1.46 1.65 1.65 0 0 1 1.74-1.56 1.82 1.82 0 0 1 1.85 1.27v.19l-1.13.3-.05-.19a.68.68 0 0 0 -.69-.42.53.53 0 0 0 -.56.35.26.26 0 0 0 0 .22.4.4 0 0 0 .28.16c.19.05.35.07.51.1l.18.02a1.51 1.51 0 0 1 1.38 1.53 1.66 1.66 0 0 1 -1.79 1.52zm-1.44-1.26a1.4 1.4 0 0 0 1.44.86c.69 0 1.43-.36 1.43-1.15a1.11 1.11 0 0 0 -1.02-1.14h-.15c-.17 0-.34-.06-.53-.11a.81.81 0 0 1 -.53-.33.65.65 0 0 1 -.08-.53.93.93 0 0 1 .95-.66 1.12 1.12 0 0 1 1 .53l.38-.1a1.5 1.5 0 0 0 -1.4-.78 1.26 1.26 0 0 0 -1.32 1.17 1 1 0 0 0 .87 1.07h.16a6.91 6.91 0 0 1 .74.17.78.78 0 0 1 .58.72c0 .45-.43.79-1 .79a1.18 1.18 0 0 1 -1.09-.58z"/><path d="m29.78 23v1.21h1.76v.73h-1.76v1.85h-.78v-4.54h2.83v.75z"/><path d="m30 27h-1.17v-4.95h3.23v1.15h-2.06v.8h1.76v1.13h-1.76zm-.75-.4h.35v-1.87h1.75v-.33h-1.77v-1.6h2.08v-.34h-2.43z"/><path d="m36.88 24.53a2.2 2.2 0 0 1 -2.24 2.33 2.35 2.35 0 1 1 2.24-2.33zm-.84 0a1.41 1.41 0 1 0 -2.81 0 1.4 1.4 0 0 0 1.41 1.53 1.37 1.37 0 0 0 1.36-1.53z"/><path d="m34.64 27.06a2.55 2.55 0 1 1 2.44-2.53 2.4 2.4 0 0 1 -2.44 2.53zm0-4.7a2.15 2.15 0 0 0 0 4.3 2.15 2.15 0 0 0 0-4.3zm0 3.9a1.6 1.6 0 0 1 -1.64-1.73 1.61 1.61 0 1 1 3.21 0 1.56 1.56 0 0 1 -1.57 1.73zm0-3.1a1.22 1.22 0 0 0 -1.2 1.37 1.21 1.21 0 0 0 1.21 1.33 1.17 1.17 0 0 0 1.2-1.33 1.21 1.21 0 0 0 -1.22-1.37z"/><path d="m40.24 24.89.86 1.89h-.85l-.78-1.78h-1v1.77h-.76v-4.52h1.89a1.65 1.65 0 0 1 1.17.39 1.4 1.4 0 0 1 .06 1.84 1.51 1.51 0 0 1 -.59.41zm-1.81-.57h1.08a.74.74 0 0 0 .64-.26.73.73 0 0 0 -.06-.88.77.77 0 0 0 -.58-.2h-1.08z"/><path d="m41.41 27h-1.3l-.77-1.77h-.71v1.77h-1.16v-4.95h2.09a1.92 1.92 0 0 1 1.31.44 1.61 1.61 0 0 1 .07 2.13 1.92 1.92 0 0 1 -.44.35zm-1-.4h.41l-.82-1.82.19-.08a1.45 1.45 0 0 0 .49-.34 1.24 1.24 0 0 0 -.06-1.57 1.52 1.52 0 0 0 -1-.33h-1.75v4.13h.36v-1.78h1.37zm-.87-2.06h-1.31v-1.77h1.28a1 1 0 0 1 .73.26.94.94 0 0 1 .07 1.14.93.93 0 0 1 -.8.35zm-.88-.4h.88a.57.57 0 0 0 .46-.14.56.56 0 0 0 0-.63.61.61 0 0 0 -.44-.14h-.88z"/><path d="m45.12 23.76a1.29 1.29 0 0 0 -1.22-.76 1.47 1.47 0 0 0 -1.44 1.57 1.44 1.44 0 0 0 1.44 1.53 1.4 1.4 0 0 0 1.28-.77l.76.35a2.17 2.17 0 0 1 -2 1.23 2.35 2.35 0 0 1 0-4.7 2.06 2.06 0 0 1 2 1.32z"/><path d="m43.9 27.06a2.55 2.55 0 0 1 0-5.1 2.29 2.29 0 0 1 2.16 1.45l.08.19-1.14.4-.07-.19a1.08 1.08 0 0 0 -1-.68 1.27 1.27 0 0 0 -1.24 1.37 1.24 1.24 0 0 0 1.24 1.33 1.21 1.21 0 0 0 1.1-.66l.09-.18 1.12.53-.09.18a2.38 2.38 0 0 1 -2.25 1.36zm0-4.7a2.15 2.15 0 0 0 0 4.3 2 2 0 0 0 1.77-.93l-.4-.19a1.7 1.7 0 1 1 -1.37-2.79 1.47 1.47 0 0 1 1.32.76l.39-.14a1.82 1.82 0 0 0 -1.7-1.01z"/><path d="m49.54 26v.74h-2.83v-4.49h2.82v.75h-2.07v1.13h1.87v.72h-1.87v1.15z"/><path d="m49.73 27h-3.22v-4.95h3.22v1.15h-2.07v.73h1.87v1.12h-1.87v.79h2.08zm-2.82-.4h2.43v-.34h-2.08v-1.61h1.86v-.32h-1.86v-1.53h2.07v-.35h-2.42z"/><path d="m42 34.79-1 1.06 3 3.07a.1.1 0 0 1 0 .16l-5 5a.1.1 0 0 1 -.16 0l-3.57-3.56-.5.32a18.87 18.87 0 0 1 -5.6 2.32l-.58.14v5a.13.13 0 0 1 -.11.11h-7.12a.13.13 0 0 1 -.11-.11v-5l-.58-.14a18.76 18.76 0 0 1 -5.6-2.32l-.5-.31-3.57 3.57a.1.1 0 0 1 -.16 0l-5-5a.12.12 0 0 1 0-.16l3.56-3.57-.31-.5a18.94 18.94 0 0 1 -2.33-5.6l-.13-.58h-5a.11.11 0 0 1 -.11-.11v-7.14a.11.11 0 0 1 .11-.11h5l.14-.58a18.6 18.6 0 0 1 2.32-5.59l.31-.51-3.59-3.57a.12.12 0 0 1 0-.16l5-5a.12.12 0 0 1 .16 0l3.56 3.56.51-.31a18.94 18.94 0 0 1 5.6-2.33l.58-.13v-5a.13.13 0 0 1 .11-.11h7.11a.13.13 0 0 1 .12.11v5l.58.14a18.6 18.6 0 0 1 5.59 2.32l.51.31 3.56-3.57a.12.12 0 0 1 .16 0l5 5a.1.1 0 0 1 0 .16l-2.96 3.07 1 1.06 3.06-3.06a1.62 1.62 0 0 0 0-2.28l-5-5a1.62 1.62 0 0 0 -2.27 0l-2.79 2.71a20 20 0 0 0 -4.95-2.06v-3.85a1.65 1.65 0 0 0 -.43-1.15 1.63 1.63 0 0 0 -1.14-.51h-7.12a1.61 1.61 0 0 0 -1.14.47 1.65 1.65 0 0 0 -.47 1.14v3.89a20.09 20.09 0 0 0 -5 2.06l-2.69-2.73a1.63 1.63 0 0 0 -2.28 0l-5 5a1.63 1.63 0 0 0 0 2.28l2.74 2.74a20 20 0 0 0 -2.06 4.95h-3.89a1.61 1.61 0 0 0 -1.57 1.64v7.12a1.61 1.61 0 0 0 1.61 1.61h3.81a20.09 20.09 0 0 0 2.06 5l-2.73 2.69a1.63 1.63 0 0 0 0 2.28l5 5a1.63 1.63 0 0 0 2.28 0l2.74-2.74a20 20 0 0 0 4.95 2.06v3.85a1.65 1.65 0 0 0 .47 1.15 1.61 1.61 0 0 0 1.14.47h7.12a1.63 1.63 0 0 0 1.14-.47 1.65 1.65 0 0 0 .47-1.14v-3.82a20.25 20.25 0 0 0 5-2.06l2.73 2.73a1.62 1.62 0 0 0 2.27 0l5-5a1.61 1.61 0 0 0 0-2.27z"/></g></svg>