<svg viewBox="0 0 50 50" xmlns="http://www.w3.org/2000/svg"><g fill="#2bb6bd"><path d="m8.85 35.81h32a8.84 8.84 0 0 0 8.82-8.81c0-4.05-2.16-7.58-5.31-8.81v-1.73c0-6.57-5.6-11.92-12.48-11.92a12.2 12.2 0 0 0 -11.18 6.75 9.92 9.92 0 0 0 -5.27-1.43 10.38 10.38 0 0 0 -10.22 9.5 8.47 8.47 0 0 0 -4.88 7.64 8.57 8.57 0 0 0 8.52 8.81zm-2.62-15.27.43-.19v-.48a8.87 8.87 0 0 1 8.75-8.51 8.39 8.39 0 0 1 5.17 1.64l.79.6.36-.93a10.64 10.64 0 0 1 10.15-6.67c6.05 0 11 4.68 11 10.42v2.83l.53.16c3.29 1 4.78 4.6 4.78 7.56a7.33 7.33 0 0 1 -7.35 7.3h-32a7.16 7.16 0 0 1 -2.61-13.73z"/><path d="m1 45.46h48.67v-8.31h-48.67zm1.5-6.81h45.67v5.35h-45.72z"/><path d="m4.46 40.55h22.45v1.5h-22.45z"/><circle cx="37.51" cy="41.3" r="1.01"/><path d="m41.08 40.29a1 1 0 1 0 1 1 1 1 0 0 0 -1-1z"/><circle cx="44.65" cy="41.3" r="1.01"/></g></svg>