<svg width="348px" height="727px" viewBox="0 0 348 727" version="1.1" xmlns="http://www.w3.org/2000/svg" xmlns:xlink="http://www.w3.org/1999/xlink" transform="rotate(90)">
    <title>Shape</title>
    <g id="Index" stroke="none" stroke-width="1" fill="none" fill-rule="evenodd">
        <g id="G01---Homepage---Desktop_bleu" transform="translate(0.000000, -532.000000)" fill="#e42313" fill-rule="nonzero">
            <g id="bloc/hero" transform="translate(-516.000000, -289.000000)">
                <g id="Group-2" transform="translate(1462.010497, 931.000795) scale(-1, 1) rotate(17.000000) translate(-1462.010497, -931.000795) translate(104.510497, 372.500795)">
                    <g id="Group-6" transform="translate(0.000000, -0.000000)">
                        <g id="Group-33" transform="translate(2305.510411, 536.529227) scale(-1, 1) rotate(17.000000) translate(-2305.510411, -536.529227) translate(1989.510411, 171.029227)">
                            <path d="M500.630783,48.268556 C468.441192,32.2258663 434.741726,19.4001831 400.02417,9.97867477 C305.6815,-15.5479127 221.054336,8.12799717 153.109717,78.3899293 C94.0308353,140.718825 48.1786872,214.326291 18.3070814,294.791575 C-22.7281447,416.106682 6.35445327,519.616995 94.1775074,593.580282 C157.973141,646.531272 230.782788,687.601454 309.133061,714.831573 C389.925158,743.868066 469.438898,733.976513 535.082476,683.689136 C539.889819,606.101435 552.219709,529.161789 571.899128,453.949848 C581.816578,412.740372 602.175829,374.767385 631.023091,343.67499 C537.830941,270.732766 490.084347,163.457282 500.630783,48.268556 Z M536.169079,259.309618 C573.816662,294.15341 584.490934,332.060393 564.86817,378.837864 C543.519625,429.891039 518.463849,478.965904 482.861635,522.105837 C436.393396,578.519595 405.457182,586.369021 332.271304,555.609483 C282.415422,539.336283 234.157484,508.002397 189.542862,469.903965 C156.049936,441.250371 146.014841,405.449332 159.69325,365.564039 C182.575822,298.49293 215.42957,236.654772 265.541123,184.771983 C290.242456,156.994504 329.719933,147.631872 364.294121,161.351339 C427.125316,183.878552 486.632785,213.297944 536.169079,259.309618 L536.169079,259.309618 Z" id="Shape" transform="translate(315.511545, 365.500000) scale(-1, 1) translate(-315.511545, -365.500000) "></path>
                        </g>
                    </g>
                </g>
            </g>
        </g>
    </g>
</svg>