<?xml version="1.0" encoding="utf-8"?>
<!-- Generator: Adobe Illustrator 16.0.0, SVG Export Plug-In . SVG Version: 6.00 Build 0)  -->
<!DOCTYPE svg PUBLIC "-//W3C//DTD SVG 1.1//EN" "http://www.w3.org/Graphics/SVG/1.1/DTD/svg11.dtd">
<svg version="1.1" id="Layer_1" xmlns="http://www.w3.org/2000/svg" xmlns:xlink="http://www.w3.org/1999/xlink" x="0px" y="0px"
	 width="109.466px" height="83.81px" viewBox="-0.66 -1.318 109.466 83.81" enable-background="new -0.66 -1.318 109.466 83.81"
	 xml:space="preserve">
<g>
	<polygon fill="#D8505C" points="0.003,71.009 107.988,71.009 107.988,71.623 0.003,71.623 	"/>
	<path fill="#D8505C" d="M28.999,29.018c0.63-0.129,2.052-0.394,2.47-0.394c0.542,0,1.918,0.141,2.772,0.767
		c0.836,0.61,0.687,0.835,2.066,0.907c1.387,0.084,4.469-0.998,5.7-1.377c1.222-0.388,3.068-0.616,4.076-0.297
		c0.995,0.297,1.219,0.827,2.068,1.214c0.837,0.388,1.465,0.46,2.146,0.388c0.7-0.077,2.771-0.611,4.85-1.388
		c2.073-0.768,3.15-0.453,4.069-0.214c0.924,0.214,1.845,1.302,2.92,1.377c1.083,0.068,1.002,0.536,4.003-0.464
		c2.997-1.004,4.61-1.312,5.229-1.233c0.609,0.081,1.919,0.229,2.382,0.693c0.456,0.462,1.618,1.301,2.762,1.229
		c0.877-0.062,2.519-0.568,3.25-0.799c-0.114,0.775-0.26,1.533-0.452,2.285c-0.587,0.157-1.763,0.412-2.482,0.132
		c-1.006-0.388-2.006-1.618-2.773-1.696c-0.771-0.077-1.379-0.609-3.461,0.234c-2.074,0.842-3.996,1.809-5.225,1.688
		c-3.305-0.3-3.158-1.142-4.073-1.688c-0.924-0.545-2.688-0.312-3.081-0.234c-0.381,0.078-3.374,1.458-4.833,1.846
		c-0.825,0.223-2.621,0.237-3.543-0.223c-0.927-0.471-1.383-1.306-2.078-1.473c-0.684-0.149-1.833-0.297-3.219,0.167
		c-1.391,0.453-4.542,1.76-5,1.76c-0.468,0-2.616-0.076-3.539-0.769c-0.927-0.688-1.076-1.455-2.303-1.309
		c-1.078,0.136-3.688,0.859-4.318,1.039C29.229,30.475,29.09,29.746,28.999,29.018L28.999,29.018z"/>
	<path fill="#D8505C" d="M53.071,51.213c0.685-0.211,1.444-0.455,2.198-0.743c2.073-0.771,3.148-0.462,4.063-0.23
		c0.264,0.073,0.53,0.203,0.806,0.364c-1.843,0.418-3.765,0.644-5.732,0.644C53.963,51.247,53.508,51.23,53.071,51.213
		L53.071,51.213z"/>
	<path fill="#D8505C" d="M40.896,47.391c0.539-0.166,1.014-0.328,1.353-0.431c1.227-0.382,3.071-0.61,4.077-0.298
		c0.997,0.298,1.228,0.843,2.066,1.224c0.848,0.381,1.466,0.464,2.154,0.381c0.698-0.075,2.766-0.607,4.84-1.379
		c2.08-0.771,3.154-0.466,4.083-0.226c0.92,0.226,1.835,1.3,2.918,1.373c1.08,0.083,0.989,0.542,3.991-0.455
		c0.926-0.31,1.72-0.552,2.398-0.743c-1.695,1.158-3.533,2.097-5.484,2.819c-1-0.375-1.137-0.872-1.748-1.229
		c-0.918-0.541-2.689-0.309-3.08-0.236c-0.393,0.076-3.382,1.46-4.837,1.846c-0.829,0.221-2.617,0.235-3.54-0.229
		c-0.913-0.456-1.384-1.303-2.075-1.458c-0.696-0.159-1.841-0.313-3.222,0.155c-0.313,0.089-0.686,0.231-1.109,0.396
		C42.715,48.454,41.783,47.953,40.896,47.391L40.896,47.391z"/>
	<path fill="#D8505C" d="M37.296,44.691c1.527-0.24,3.715-1.01,4.71-1.319c1.222-0.372,3.068-0.6,4.076-0.302
		c0.995,0.302,1.219,0.846,2.068,1.237c0.837,0.384,1.465,0.456,2.146,0.384c0.7-0.084,2.771-0.613,4.85-1.393
		c2.073-0.769,3.15-0.467,4.069-0.229c0.924,0.229,1.845,1.307,2.92,1.384c1.083,0.073,1.002,0.539,4.003-0.457
		c2.997-0.996,4.61-1.308,5.229-1.232c0.424,0.059,1.193,0.148,1.761,0.343c-0.421,0.476-0.884,0.925-1.354,1.353
		c-0.332,0.068-0.723,0.198-1.183,0.386c-2.075,0.839-3.996,1.801-5.224,1.69c-3.305-0.314-3.158-1.153-4.073-1.69
		c-0.925-0.536-2.688-0.316-3.082-0.236c-0.381,0.085-3.375,1.469-4.833,1.849c-0.825,0.214-2.621,0.232-3.543-0.235
		c-0.927-0.458-1.383-1.306-2.078-1.457c-0.684-0.156-1.833-0.305-3.219,0.15c-1.253,0.421-3.927,1.521-4.788,1.729
		C38.896,46.043,38.072,45.39,37.296,44.691L37.296,44.691z"/>
	<path fill="#D8505C" d="M32.9,39.555c0.465,0.122,0.953,0.3,1.341,0.578c0.836,0.615,0.687,0.848,2.067,0.927
		c1.386,0.074,4.468-1.012,5.699-1.393c1.223-0.376,3.068-0.603,4.076-0.308c0.995,0.308,1.218,0.854,2.069,1.235
		c0.836,0.385,1.464,0.464,2.146,0.385c0.699-0.086,2.771-0.609,4.85-1.383c2.074-0.775,3.15-0.463,4.07-0.237
		c0.924,0.237,1.844,1.309,2.921,1.39c1.083,0.07,1.003,0.531,4.003-0.459c2.996-0.999,4.61-1.312,5.228-1.234
		c0.608,0.079,1.919,0.226,2.382,0.696c0.266,0.265,0.775,0.67,1.393,0.941c-0.133,0.174-0.256,0.347-0.39,0.505
		c-0.237-0.158-0.479-0.276-0.698-0.306c-0.771-0.073-1.379-0.604-3.461,0.24c-2.074,0.839-3.996,1.805-5.225,1.698
		c-3.305-0.313-3.158-1.156-4.073-1.698c-0.924-0.539-2.688-0.313-3.081-0.24c-0.381,0.087-3.374,1.47-4.833,1.862
		c-0.825,0.202-2.621,0.223-3.543-0.238c-0.927-0.471-1.383-1.312-2.078-1.459c-0.684-0.165-1.833-0.31-3.219,0.147
		c-1.391,0.469-4.542,1.771-5,1.771c-0.468,0-2.616-0.073-3.539-0.773c-0.892-0.669-1.065-1.398-2.176-1.324
		C33.506,40.457,33.198,40.007,32.9,39.555L32.9,39.555z"/>
	<path fill="#D8505C" d="M30.909,35.861c0.291-0.048,0.552-0.08,0.687-0.08c0.537,0,1.918,0.152,2.765,0.771
		c0.84,0.61,0.697,0.851,2.07,0.924c1.39,0.072,4.466-1.006,5.693-1.393c1.229-0.385,3.072-0.613,4.08-0.303
		c0.997,0.303,1.228,0.845,2.076,1.226c0.836,0.396,1.45,0.47,2.144,0.396c0.703-0.086,2.769-0.621,4.847-1.383
		c2.072-0.785,3.147-0.468,4.063-0.238c0.93,0.238,1.851,1.306,2.933,1.382c1.07,0.074,0.991,0.543,3.994-0.451
		c3.002-1.013,4.611-1.32,5.229-1.241c0.613,0.081,1.927,0.229,2.383,0.693c0.461,0.464,1.613,1.312,2.77,1.238
		c0.168-0.01,0.364-0.042,0.582-0.086c-0.25,0.486-0.519,0.965-0.793,1.429c-0.822-0.513-1.621-1.362-2.25-1.429
		c-0.77-0.079-1.38-0.604-3.462,0.232c-2.065,0.844-3.995,1.812-5.229,1.69c-3.301-0.306-3.15-1.154-4.067-1.69
		c-0.925-0.541-2.694-0.312-3.082-0.232c-0.381,0.086-3.374,1.464-4.839,1.846c-0.818,0.219-2.612,0.229-3.528-0.228
		c-0.922-0.468-1.391-1.299-2.085-1.459c-0.683-0.159-1.836-0.303-3.22,0.161c-1.382,0.449-4.541,1.753-5.001,1.753
		c-0.458,0-2.612-0.072-3.529-0.763c-0.933-0.692-1.088-1.464-2.308-1.312c-0.477,0.066-1.242,0.233-2.001,0.425
		C31.482,37.128,31.187,36.503,30.909,35.861L30.909,35.861z"/>
	<path fill="#D8505C" d="M29.695,32.438c0.64-0.121,1.371-0.246,1.652-0.246c0.541,0,1.913,0.17,2.766,0.783
		c0.841,0.604,0.69,0.839,2.081,0.913c1.378,0.074,4.456-1.001,5.685-1.387c1.226-0.384,3.076-0.616,4.07-0.311
		c1.004,0.311,1.236,0.853,2.083,1.234c0.84,0.388,1.459,0.462,2.145,0.388c0.694-0.078,2.769-0.609,4.846-1.391
		c2.071-0.774,3.146-0.453,4.076-0.23c0.914,0.23,1.842,1.309,2.92,1.388c1.069,0.085,0.995,0.539,3.994-0.466
		c2.996-0.996,4.614-1.305,5.229-1.229c0.615,0.085,1.924,0.232,2.384,0.702c0.453,0.462,1.608,1.301,2.761,1.227
		c0.651-0.048,1.691-0.326,2.502-0.565c-0.244,0.771-0.521,1.531-0.832,2.27c-0.479,0.059-0.98,0.059-1.359-0.089
		c-1.002-0.39-1.994-1.614-2.772-1.69c-0.765-0.072-1.372-0.623-3.457,0.226c-2.069,0.859-3.997,1.809-5.226,1.692
		c-3.299-0.309-3.156-1.149-4.077-1.692c-0.921-0.536-2.683-0.298-3.07-0.226c-0.385,0.076-3.376,1.459-4.839,1.846
		c-0.82,0.209-2.607,0.23-3.54-0.235c-0.923-0.458-1.383-1.303-2.077-1.459c-0.685-0.15-1.832-0.308-3.216,0.156
		c-1.4,0.461-4.542,1.77-5.004,1.77c-0.46,0-2.605-0.085-3.539-0.774c-0.925-0.688-1.076-1.459-2.304-1.304
		c-0.731,0.096-2.184,0.451-3.226,0.735C30.103,33.813,29.885,33.129,29.695,32.438L29.695,32.438z"/>
	<path fill="#55924E" d="M68.912,24.386l10.801-2.941c0.119,0.788,0.215,1.567,0.268,2.376c0.039,0.591,0.064,1.185,0.064,1.789
		v0.041c0,0.842-0.043,1.671-0.127,2.491l-11.006-1.729l11.133-0.763v-0.041c0-0.604-0.025-1.198-0.064-1.789L68.912,24.386
		L68.912,24.386z"/>
	<path fill="#55924E" d="M68.195,21.977l10.308-5.141c0.312,0.857,0.579,1.734,0.799,2.641L68.195,21.977L68.195,21.977z"/>
	<path fill="#55924E" d="M67.671,19.5l8.71-7.103c0.503,0.838,0.974,1.72,1.386,2.628L67.671,19.5L67.671,19.5z"/>
	<path fill="#55924E" d="M65.781,16.113l7.181-8.19c0.754,0.792,1.463,1.632,2.12,2.521L65.781,16.113L65.781,16.113z"/>
	<path fill="#55924E" d="M63.167,14.224l4.762-10.399c1.146,0.707,2.227,1.514,3.246,2.396L63.167,14.224L63.167,14.224z"/>
	<path fill="#55924E" d="M59.72,12.33l2.744-11.062c1.242,0.409,2.434,0.912,3.588,1.495L59.72,12.33L59.72,12.33z"/>
	<path fill="#55924E" d="M56.199,11.225L55.707,0c1.363,0.075,2.712,0.241,4.014,0.518L56.199,11.225L56.199,11.225z"/>
	<path d="M52.742,10.965L49.271,0.482C50.581,0.22,51.926,0.06,53.298,0L52.742,10.965L52.742,10.965z"/>
	<path d="M49.213,12.137l-6.406-9.397c1.208-0.604,2.468-1.129,3.768-1.548L49.213,12.137L49.213,12.137z"/>
	<path d="M45.565,14.023l-7.928-7.805c0.997-0.854,2.052-1.644,3.167-2.346L45.565,14.023L45.565,14.023z"/>
	<path d="M42.893,16.175l-9.096-5.814c0.67-0.904,1.398-1.754,2.188-2.572L42.893,16.175L42.893,16.175z"/>
	<path d="M41.261,19.307l-10.236-4.223c0.403-0.887,0.853-1.744,1.344-2.576L41.261,19.307L41.261,19.307z"/>
	<path d="M40.417,21.977l-10.858-2.688c0.213-0.859,0.479-1.71,0.787-2.537L40.417,21.977L40.417,21.977z"/>
	<path d="M39.833,24.386l-10.98-0.812c0.055-0.74,0.151-1.474,0.269-2.192L39.833,24.386L39.833,24.386z"/>
	<path d="M39.833,26.344l-10.962,1.525c-0.061-0.709-0.096-1.426-0.096-2.157L39.833,26.344L39.833,26.344z"/>
	<path d="M4.437,79.548l0.666,1.95h0.993l-2.423-6.682H2.65l-2.527,6.682h0.937l0.704-1.95H4.437L4.437,79.548 M2.041,78.749
		l1.067-2.941h0.017l0.989,2.941H2.041L2.041,78.749z"/>
	<path d="M7.453,81.499v-0.603H7.48c0.16,0.262,0.507,0.738,1.328,0.738c1.658,0,2.154-1.554,2.154-2.714
		c0-1.372-0.739-2.434-2.031-2.434c-0.572,0.013-1.053,0.247-1.407,0.755H7.501v-2.426H6.689V81.5L7.453,81.499L7.453,81.499
		 M10.109,79.048c0,1.063-0.418,1.89-1.315,1.89c-0.522,0-1.332-0.351-1.332-1.644c0-0.789,0.139-2.069,1.319-2.069
		C10.04,77.225,10.109,78.424,10.109,79.048L10.109,79.048z"/>
	<path d="M15.816,81.499v-4.876h-0.829v2.687c0,0.706-0.301,1.629-1.339,1.629c-0.528,0-0.935-0.275-0.935-1.082v-3.232h-0.826
		v3.504c0,1.169,0.864,1.509,1.583,1.509c0.78,0,1.196-0.296,1.548-0.864l0.015,0.02v0.709h0.783V81.499z"/>
	<path d="M19.648,81.499h2.67c2.201,0,2.846-1.939,2.846-3.437c0-1.923-1.072-3.246-2.811-3.246h-2.705V81.499L19.648,81.499
		 M20.55,75.585h1.684c1.231,0,2.001,0.845,2.001,2.533c0,1.691-0.767,2.603-1.938,2.603H20.55V75.585L20.55,75.585z"/>
	<path d="M30.117,78.183c0-1.385-0.946-1.695-1.7-1.695c-0.789,0-1.188,0.487-1.423,0.792h-0.015v-2.463h-0.828v6.683h0.828v-2.655
		c0-1.229,0.685-1.618,1.353-1.618c0.78,0,0.971,0.428,0.971,1.093V81.5h0.814V78.183L30.117,78.183z"/>
	<path d="M31.995,78.101c0.056-0.373,0.185-0.932,1.115-0.932c0.777,0,1.144,0.281,1.144,0.793c0,0.479-0.234,0.562-0.426,0.573
		l-1.352,0.17c-1.36,0.166-1.479,1.115-1.479,1.53c0,0.829,0.637,1.398,1.527,1.398c0.952,0,1.444-0.449,1.759-0.787
		c0.026,0.368,0.143,0.747,0.862,0.747c0.198,0,0.318-0.057,0.446-0.097V80.9c-0.083,0.015-0.196,0.035-0.26,0.035
		c-0.175,0-0.273-0.075-0.273-0.289v-2.802c0-1.252-1.419-1.359-1.811-1.359c-1.197,0-1.979,0.462-2.015,1.613h0.763V78.101
		 M34.24,79.812c0,0.65-0.75,1.142-1.51,1.142c-0.625,0-0.883-0.311-0.883-0.849c0-0.614,0.64-0.729,1.039-0.791
		c1.017-0.125,1.219-0.199,1.354-0.306V79.812L34.24,79.812z"/>
	<path d="M37.086,81.499v-0.603h0.012c0.168,0.262,0.512,0.738,1.345,0.738c1.657,0,2.142-1.554,2.142-2.714
		c0-1.372-0.739-2.434-2.022-2.434c-0.57,0.013-1.062,0.247-1.414,0.755h-0.014v-2.426h-0.829V81.5L37.086,81.499L37.086,81.499
		 M39.734,79.048c0,1.063-0.414,1.89-1.307,1.89c-0.518,0-1.334-0.351-1.334-1.644c0-0.789,0.135-2.069,1.312-2.069
		C39.676,77.225,39.734,78.424,39.734,79.048L39.734,79.048z"/>
	<polygon points="42.332,76.623 41.514,76.623 41.514,81.499 42.332,81.499 	"/>
	<path d="M46.171,81.499h2.662c2.202,0,2.851-1.939,2.851-3.437c0-1.923-1.071-3.246-2.81-3.246h-2.702L46.171,81.499L46.171,81.499
		 M47.066,75.585h1.684c1.235,0,2.002,0.845,2.002,2.533c0,1.691-0.763,2.603-1.935,2.603h-1.751V75.585L47.066,75.585z"/>
	<polygon points="53.508,76.623 52.69,76.623 52.69,81.499 53.508,81.499 	"/>
	<path d="M58.23,78.019c0-0.255-0.119-1.531-1.863-1.531c-0.953,0-1.834,0.487-1.834,1.562c0,0.671,0.448,1.006,1.129,1.179
		l0.938,0.226c0.706,0.18,0.98,0.312,0.98,0.704c0,0.541-0.535,0.781-1.124,0.781c-1.154,0-1.261-0.622-1.289-1.006h-0.793
		c0.027,0.586,0.167,1.702,2.094,1.702c1.097,0,1.927-0.602,1.927-1.609c0-0.651-0.356-1.028-1.369-1.295l-0.822-0.193
		c-0.635-0.157-0.885-0.248-0.885-0.652c0-0.604,0.715-0.688,0.973-0.688c1.029,0,1.143,0.509,1.15,0.822L58.23,78.019L58.23,78.019
		z"/>
	<path d="M61.05,77.31v-0.688h-0.777v-1.354h-0.819v1.354H58.79v0.688h0.664v3.208c0,0.584,0.179,1.052,0.985,1.052
		c0.086,0,0.312-0.039,0.61-0.068v-0.638h-0.288c-0.164,0-0.488,0-0.488-0.383V77.31H61.05L61.05,77.31z"/>
	<path d="M62.717,78.675c0-0.713,0.486-1.303,1.241-1.303h0.318v-0.857c-0.073-0.015-0.117-0.027-0.222-0.027
		c-0.61,0-1.042,0.386-1.364,0.953h-0.024v-0.817h-0.763v4.876h0.812L62.717,78.675L62.717,78.675z"/>
	<polygon points="65.667,76.623 64.846,76.623 64.846,81.499 65.667,81.499 	"/>
	<path d="M67.543,81.499v-0.603h0.017c0.16,0.262,0.508,0.738,1.33,0.738c1.657,0,2.148-1.554,2.148-2.714
		c0-1.372-0.739-2.434-2.034-2.434c-0.563,0.013-1.049,0.247-1.403,0.755h-0.021v-2.426h-0.82V81.5L67.543,81.499L67.543,81.499
		 M70.191,79.048c0,1.063-0.428,1.89-1.314,1.89c-0.527,0-1.327-0.351-1.327-1.644c0-0.789,0.13-2.069,1.306-2.069
		C70.126,77.225,70.191,78.424,70.191,79.048L70.191,79.048z"/>
	<path d="M75.894,81.499v-4.876h-0.826v2.687c0,0.706-0.313,1.629-1.346,1.629c-0.521,0-0.932-0.275-0.932-1.082v-3.232h-0.818
		v3.504c0,1.169,0.865,1.509,1.581,1.509c0.779,0,1.199-0.296,1.548-0.864l0.008,0.02v0.709h0.785V81.499z"/>
	<path d="M78.839,77.31v-0.688h-0.783v-1.354H77.24v1.354h-0.664v0.688h0.664v3.208c0,0.584,0.175,1.052,0.99,1.052
		c0.078,0,0.324-0.039,0.608-0.068v-0.638h-0.283c-0.168,0-0.499,0-0.499-0.383V77.31H78.839L78.839,77.31z"/>
	<polygon points="80.417,76.623 79.585,76.623 79.585,81.499 80.417,81.499 	"/>
	<path d="M81.293,79.054c0,1.261,0.714,2.571,2.259,2.571c1.575,0,2.27-1.312,2.27-2.571c0-1.249-0.693-2.566-2.27-2.566
		C82.007,76.487,81.293,77.805,81.293,79.054L81.293,79.054 M82.144,79.054c0-0.65,0.243-1.857,1.408-1.857
		c1.18,0,1.422,1.207,1.422,1.857c0,0.653-0.242,1.862-1.422,1.862C82.387,80.917,82.144,79.708,82.144,79.054L82.144,79.054z"/>
	<path d="M90.652,78.183c0-1.385-0.944-1.695-1.709-1.695c-0.828,0-1.274,0.566-1.461,0.832h-0.02v-0.696h-0.779v4.876h0.83v-2.655
		c0-1.321,0.819-1.618,1.271-1.618c0.809,0,1.049,0.428,1.049,1.28v2.993h0.818V78.183L90.652,78.183z"/>
	<path d="M99.994,76.826c-0.122-1.114-1.021-2.189-2.744-2.189c-1.951,0-3.122,1.424-3.122,3.481c0,2.567,1.487,3.552,3.009,3.552
		c0.508,0,2.549-0.102,2.916-2.629h-0.874c-0.295,1.555-1.319,1.842-1.909,1.842c-1.656,0-2.207-1.219-2.207-2.796
		c0-1.75,0.971-2.651,2.187-2.651c0.642,0,1.612,0.219,1.87,1.392L99.994,76.826L99.994,76.826z"/>
	<path d="M100.709,79.054c0,1.261,0.702,2.571,2.264,2.571c1.546,0,2.257-1.312,2.257-2.571c0-1.249-0.709-2.566-2.257-2.566
		C101.411,76.487,100.709,77.805,100.709,79.054L100.709,79.054 M101.548,79.054c0-0.65,0.24-1.857,1.424-1.857
		c1.165,0,1.404,1.207,1.404,1.857c0,0.653-0.239,1.862-1.404,1.862C101.79,80.917,101.548,79.708,101.548,79.054L101.548,79.054z"
		/>
	<polygon points="107.269,80.507 106.305,80.507 106.305,81.499 107.269,81.499 	"/>
	<path d="M71.027,66.431c0,0.279-0.154,0.429-0.439,0.429c-0.081,0-0.135-0.017-0.18-0.037c-0.037-0.029-0.077-0.058-0.119-0.079
		c-0.07-0.121-0.118-0.223-0.118-0.312c0-0.283,0.147-0.424,0.421-0.424c0.124,0,0.227,0.031,0.307,0.118
		C70.978,66.213,71.027,66.313,71.027,66.431L71.027,66.431z"/>
	<path d="M45.457,62.009c0.015-0.016,0.032-0.035,0.047-0.051C45.488,61.974,45.47,61.994,45.457,62.009z"/>
	<path d="M62.589,61.862c0,0-4.293,0-5.404-0.007c-0.271,0-0.899,0.791-0.899,0.791l0.013-2.798l-0.679,0.007v4.748h-2.905v-2.569
		H51.96v2.569h-2.661l-1.726-2.741l0.102,0.172H45.44c-0.307,0.336-0.211,1.062-0.211,1.062l0.617,1.509h-8.93
		c-1.181,0-1.217-0.067-1.409-0.171c-0.207-0.104-0.386-0.729-0.386-0.922c0-0.21,0.517-1.502,0.517-1.502s-0.507,0.487-0.873,1.292
		c-0.207,0.48,0.06,1.222,0.357,1.543c0.605,0.617,1.517,0.474,1.517,0.474h10.393c0,0-0.627-1.562-0.872-2.017
		c-0.258-0.466,0.089-0.736,0.089-0.736h0.926l1.613,2.753h14.458c0,0,0.032-2.058,0.032-2.576
		C63.279,61.862,62.589,61.862,62.589,61.862 M62.553,64.604h-6.269v-1.238c0-0.878,1-0.869,1-0.869h5.269V64.604L62.553,64.604z"/>
	<path d="M45.672,61.879c0.016-0.011,0.026-0.011,0.04-0.017C45.699,61.868,45.688,61.868,45.672,61.879z"/>
	<path d="M45.553,61.931c0.012-0.009,0.027-0.018,0.049-0.026C45.581,61.914,45.565,61.922,45.553,61.931z"/>
	<path d="M57.342,60.676c0.097,0,0.165,0,0.204-0.007c0.077-0.01,0.139-0.063,0.205-0.144c0.052-0.091,0.082-0.182,0.082-0.267
		c0-0.271-0.124-0.404-0.372-0.404h-0.095c-0.258-0.007-0.377,0.134-0.377,0.404C56.99,60.546,57.109,60.676,57.342,60.676z"/>
	<path d="M40.669,66.007c-0.283,0-0.417,0.141-0.417,0.424c0,0.09,0.042,0.19,0.116,0.312c0.03,0.021,0.069,0.05,0.117,0.079
		c0.041,0.021,0.101,0.037,0.181,0.037c0.286,0,0.425-0.148,0.425-0.429c0-0.117-0.038-0.218-0.117-0.306
		C40.896,66.039,40.783,66.007,40.669,66.007z"/>
	<path d="M41.857,66.007c-0.275,0-0.413,0.141-0.413,0.424c0,0.09,0.039,0.19,0.116,0.312c0.031,0.021,0.078,0.05,0.116,0.079
		c0.04,0.021,0.097,0.037,0.177,0.037c0.289,0,0.44-0.148,0.44-0.429c0-0.117-0.045-0.218-0.127-0.306
		C42.078,66.039,41.989,66.007,41.857,66.007z"/>
	<path d="M52.343,66.007c-0.282,0-0.431,0.141-0.431,0.424c0,0.09,0.039,0.19,0.117,0.312c0.042,0.021,0.082,0.05,0.122,0.079
		c0.044,0.021,0.091,0.037,0.171,0.037c0.295,0,0.438-0.148,0.438-0.429c0-0.117-0.041-0.218-0.119-0.306
		C52.556,66.039,52.458,66.007,52.343,66.007z"/>
	<path d="M45.713,61.862c0.034,0,0.083-0.007,0.134-0.007C45.796,61.855,45.747,61.862,45.713,61.862z"/>
	<path d="M45.44,62.034L45.44,62.034c0-0.014,0.009-0.014,0.016-0.024C45.449,62.021,45.44,62.021,45.44,62.034z"/>
	<path d="M45.603,61.904c0.021-0.017,0.047-0.017,0.07-0.025C45.648,61.888,45.625,61.888,45.603,61.904z"/>
	<path d="M45.503,61.959c0.014-0.01,0.027-0.014,0.05-0.028C45.53,61.945,45.517,61.951,45.503,61.959z"/>
	<path d="M15.2,65.419c0-0.042-0.011-0.069-0.011-0.101c-0.012-0.297-0.016-0.945-0.016-1.589h-0.666v1.589
		c0,0,0.005,0.033,0.005,0.101h0.133h-0.133c0,0.261-0.056,0.963-0.606,1.273c-0.428,0.237-0.614,0.269-0.614,0.269
		s0.614,0.209,0.97,0C14.607,66.758,15.212,66.231,15.2,65.419L15.2,65.419L15.2,65.419L15.2,65.419L15.2,65.419z"/>
	<path d="M18.575,66.961c-0.188,0.168,0.589,0.005,0.887-0.203c0.709-0.525,0.822-1.109,0.837-1.339h-0.837
		C19.492,65.626,19.451,66.147,18.575,66.961z"/>
	<path d="M9.026,66.007c-0.296,0-0.435,0.141-0.435,0.424c0,0.09,0.039,0.19,0.118,0.312c0.031,0.021,0.075,0.05,0.12,0.079
		c0.04,0.021,0.099,0.037,0.173,0.037c0.293,0,0.436-0.148,0.436-0.429c0-0.117-0.044-0.218-0.122-0.306
		C9.236,66.039,9.142,66.007,9.026,66.007z"/>
	<path d="M10.217,66.007c-0.292,0-0.43,0.141-0.43,0.424c0,0.09,0.034,0.19,0.114,0.312c0.038,0.021,0.079,0.05,0.127,0.079
		c0.035,0.021,0.093,0.037,0.17,0.037c0.294,0,0.435-0.148,0.435-0.429c0-0.117-0.051-0.218-0.127-0.306
		C10.434,66.039,10.332,66.007,10.217,66.007z"/>
	<path d="M30.867,64.604H29.17v-0.874v-1.695l0.012-1.692V59.85h-0.721l-0.006,0.492l-0.014,1.692l-0.013,1.695l-0.011,0.853
		l-3.887,0.021v-0.874v-1.695v-0.172h-0.618v0.172l-0.005,1.695l-0.008,0.874l-3.751-0.021v-0.853l0.018-1.695h-2.611
		c-0.2,0.099-0.394,0.269-0.474,0.53c-0.164,0.618-0.12,1.034-0.099,1.165l0,0c0,0.022,0.008,0.026,0.008,0.026l-0.008,1.562h2.443
		c0,0,0.022,0.03,0.038,0.101H20.3c0.007-0.066,0-0.101,0-0.101h11.196l0.005-1.589h-0.634V64.604 M19.424,64.604h-1.761v-0.874
		v-0.364c0-0.878,0.596-0.869,0.596-0.869h1.165v1.233V64.604L19.424,64.604z"/>
	<path d="M12.788,62.034v-0.172h-0.699v0.172v1.695v0.874L1.754,64.582c0,0-0.453-0.423-0.505-0.853H1.034H1.25
		c-0.021-0.114,0-0.221,0.052-0.327c0.248-0.521,0.589-0.921,1.108-0.976c1.471-0.125,1.703,0.668,1.703,0.668l0.412-0.571
		c0,0-0.203-0.259-0.57-0.489H1.289c-0.294,0.168-0.478,0.415-0.613,0.772c-0.09,0.268-0.132,0.595-0.132,0.922l0,0l0,0l0,0l0,0
		c0,0.354,0.054,0.691,0.132,0.854C0.833,64.896,0.936,65,0.936,65s-0.224,0.152-0.458,0.417c-0.242,0.264-0.476,0.655-0.476,1.117
		c0,0.636,0.226,1.312,0.992,1.779c0.776,0.471,2.516,0.492,3.038,0.322c0.782-0.261,1.54-0.84,1.54-0.84l-0.488-0.531
		c0,0-0.816,0.771-1.885,0.713c-1.078-0.047-1.781-0.094-2.141-0.505c-0.351-0.409-0.382-1.136-0.068-1.497
		c0.193-0.226,0.434-0.437,0.687-0.558h0.009c0.135-0.069,0.283-0.112,0.435-0.112l10.697,0.013L12.8,63.729L12.788,62.034z"/>
	<path d="M15.181,62.034h-0.674v1.695h0.666C15.177,63.043,15.181,62.345,15.181,62.034z"/>
	<path d="M2.411,61.709c-0.493,0.066-0.85,0.159-1.121,0.325h2.666C3.591,61.805,3.073,61.617,2.411,61.709z"/>
	<path d="M15.189,61.862h-0.681v0.172h0.674C15.189,61.922,15.189,61.862,15.189,61.862z"/>
	<path d="M18.26,61.862c0,0-0.384,0-0.706,0.172h2.611v-0.172H18.26z"/>
	<path d="M14.905,59.855H14.81c-0.248-0.007-0.384,0.134-0.384,0.404c0,0.03,0.006,0.056,0.006,0.081l0,0
		c0.02,0.225,0.14,0.335,0.358,0.335c0.102,0,0.169,0,0.198-0.007c0.076-0.01,0.15-0.063,0.201-0.145
		c0.038-0.058,0.062-0.121,0.076-0.185l0,0c0.012-0.025,0.012-0.051,0.012-0.081C15.276,59.989,15.152,59.855,14.905,59.855z"/>
	<path d="M23.315,60.341c0.024,0.226,0.141,0.335,0.359,0.335c0.097,0,0.164,0,0.202-0.007c0.077-0.01,0.143-0.063,0.206-0.144
		c0.037-0.059,0.056-0.122,0.075-0.186l0,0c0-0.025,0-0.051,0-0.081c0-0.271-0.113-0.404-0.367-0.404h-0.094
		c-0.26-0.007-0.381,0.134-0.381,0.404C23.315,60.291,23.315,60.316,23.315,60.341L23.315,60.341z"/>
	<path d="M24.53,60.341c0.015,0.226,0.142,0.335,0.352,0.335c0.1,0,0.168,0,0.208-0.007c0.074-0.01,0.144-0.063,0.199-0.144
		c0.039-0.059,0.065-0.122,0.07-0.186h0.008c0.005-0.025,0.005-0.051,0.005-0.081c0-0.271-0.121-0.404-0.372-0.404h-0.092
		c-0.259-0.007-0.388,0.134-0.388,0.404C24.52,60.291,24.52,60.316,24.53,60.341L24.53,60.341z"/>
	<polygon points="30.873,59.794 30.873,60.341 30.873,62.034 30.867,63.729 31.501,63.729 31.511,62.034 31.511,62.034 
		31.517,60.341 31.525,59.794 	"/>
	<path d="M80.261,75.288c-0.076-0.097-0.178-0.137-0.298-0.137c-0.287,0-0.423,0.14-0.423,0.434c0,0.088,0.039,0.183,0.122,0.306
		c0.028,0.021,0.067,0.047,0.11,0.067c0.045,0.038,0.098,0.043,0.17,0.043c0.293,0,0.438-0.127,0.438-0.416"/>
	<path d="M65.359,75.288c-0.072-0.097-0.166-0.137-0.297-0.137c-0.276,0-0.416,0.14-0.416,0.434c0,0.088,0.039,0.183,0.112,0.306
		c0.036,0.021,0.079,0.047,0.115,0.067c0.051,0.038,0.106,0.043,0.18,0.043c0.292,0,0.435-0.127,0.435-0.416"/>
	<path d="M53.143,75.151c-0.27,0-0.423,0.14-0.423,0.434c0,0.088,0.041,0.183,0.122,0.306c0.032,0.021,0.073,0.047,0.114,0.067
		c0.046,0.038,0.109,0.043,0.184,0.043c0.284,0,0.433-0.127,0.433-0.416c0-0.116-0.042-0.225-0.134-0.297
		C53.371,75.191,53.27,75.151,53.143,75.151z"/>
	<path d="M41.973,75.151c-0.282,0-0.422,0.14-0.422,0.434c0,0.088,0.041,0.183,0.117,0.306c0.041,0.021,0.078,0.047,0.115,0.067
		c0.04,0.038,0.1,0.043,0.184,0.043c0.287,0,0.433-0.127,0.433-0.416c0-0.116-0.044-0.225-0.119-0.297
		C42.191,75.191,42.094,75.151,41.973,75.151z"/>
	<path d="M73.433,62.034l-0.011-0.179h-0.657v0.179l0.004,1.695v0.864h-4.701l0.011-0.864l0.014-1.695h-2.312
		c-0.201,0.099-0.437,0.269-0.664,0.53c-0.247,0.308-0.28,1.112-0.28,1.112v0.052l0.015,1.576h2.521c0,0,0.013,0.044,0.027,0.111
		h0.717c0.007-0.066,0.016-0.101,0.016-0.101h5.301v-1.587V62.034 M67.373,63.729v0.874h-1.744v-0.874v-0.364
		c0-0.877,0.589-0.868,0.589-0.868h1.155V63.729L67.373,63.729z"/>
	<path d="M67.26,66.405c-0.147,0.297-0.812,0.754-1.067,0.754c-0.267,0,0.927,0.267,1.338-0.152
		c0.334-0.339,0.527-1.274,0.586-1.588H67.4C67.428,65.595,67.456,65.993,67.26,66.405z"/>
	<polygon points="74.754,60.341 74.754,62.034 74.754,63.729 74.754,65.318 75.378,65.318 75.378,63.729 75.378,62.034 
		75.378,60.341 75.378,59.759 74.754,59.74 	"/>
	<path d="M75.734,58.964h-0.612l-0.101-0.654l0.457-0.111l0.049-0.36c0,0-0.818,0.096-0.818,0.411c0,0.312,0.047,0.565,0.047,0.565
		l-0.605,0.21v0.253l1.684-0.052L75.734,58.964z"/>
	<path d="M94.072,63.729c0.015,0.43-0.01,0.874,0.015,0.874h-0.724h-10.25c0,0-0.684,0.208-0.684-0.359v-0.515v-1.694h-2.54
		c-0.35,0.147-0.688,0.415-0.688,0.893v0.803v1.591h2.093v-0.716h-1.565l-0.016-0.875l-0.012-0.429c0,0,0.359-0.774,0.82-0.774h1
		c0,0,0.26-0.05,0.319,0.513c0.008,0.193,0.008,0.443,0.008,0.69l0,0c-0.008,0.447-0.05,0.874-0.05,0.874s0.184,0.654,0.852,0.717
		c0.672,0.047,12.062,0,12.062,0l-0.023-1.591L94.072,63.729L94.072,63.729z"/>
	<path d="M94.042,62.034H85.98l-0.691,0.415l7.822,0.011c0,0,0.816,0.087,0.92,0.738c0.029,0.143,0.031,0.335,0.039,0.53h0.617
		l-0.008-0.646C94.68,63.085,94.585,62.37,94.042,62.034z"/>
	<path d="M93.392,61.862h-5.171c0,0-0.268-0.146,0.128-0.474c0.268-0.232,0.953-0.699,1.479-1.048h-0.999l-2.849,1.692h8.062
		C93.867,61.927,93.662,61.862,93.392,61.862z"/>
	<path d="M80.55,61.855c0,0-0.33,0.028-0.661,0.18h2.54v-0.173L80.55,61.855z"/>
	<path d="M107.411,61.862v0.172v1.695v0.874c0,0,0,0.715-0.791,0.715c-0.648,0-0.959-0.293-0.959-0.715v-0.874v-1.695v-0.172h-0.796
		v0.172v1.695v0.874c0,0-0.176,0.715-0.998,0.715c-0.282,0-0.885-0.293-0.885-0.715v-0.874v-1.695v-0.172h-0.746v0.172v1.695v0.874
		h-4.89v-0.874l-0.011-1.695v-0.179H96.65c0,0,0,0.058,0,0.179c0,0.313,0,1.021-0.01,1.695l0,0c0,0.727-0.01,1.438-0.016,1.589
		c-0.003,0.02-0.014,0.059-0.014,0.101l0,0c-0.063,0.529-0.317,1.688-0.932,1.74c-0.671,0.058,0.614,0.314,0.971-0.104
		c0.617-0.732,0.556-1.393,0.619-1.636h-0.214h0.214c0.027-0.066,0.051-0.101,0.104-0.101h5.079c0,0,0.035,0.033,0.095,0.101h2.101
		h-2.101c0.188,0.187,0.638,0.589,1.252,0.589c0.616,0,0.966-0.345,1.155-0.589l0,0c0.105-0.153,0.15-0.266,0.15-0.266
		s0.076,0.111,0.219,0.266h0.314h-0.314c0.26,0.243,0.724,0.589,1.393,0.589c0.523,0,0.862-0.274,1.076-0.589l0,0
		c0.208-0.32,0.281-0.681,0.281-0.814V63.73v-1.695v-0.178L107.411,61.862z"/>
	<path d="M80.036,60.341c0,0.004,0,0.004,0,0.004c0.01,0.061,0.016,0.119,0.024,0.155c0,0.007,0.008,0.007,0.008,0.02
		c0.017,0.042,0.041,0.071,0.062,0.099c0.01,0,0.01,0.013,0.01,0.013c0.031,0.029,0.06,0.051,0.099,0.067h0.011
		c0.045,0.021,0.092,0.031,0.142,0.031c0.105,0,0.178-0.012,0.207-0.017c0.079-0.008,0.143-0.054,0.202-0.138
		c0.021-0.043,0.05-0.087,0.056-0.135c0.004-0.014,0.004-0.019,0.01-0.036c0-0.021,0.013-0.047,0.013-0.063h0.008
		c0-0.009,0-0.024,0-0.033c0-0.275-0.126-0.407-0.372-0.407h-0.096c-0.26-0.006-0.381,0.127-0.381,0.407
		C80.036,60.316,80.036,60.333,80.036,60.341L80.036,60.341z"/>
	<path d="M81.191,60.341L81.191,60.341c0.008,0.033,0.015,0.063,0.028,0.102c0.011,0.008,0.011,0.021,0.017,0.026
		c0.013,0.038,0.037,0.076,0.058,0.115c0.034,0.017,0.082,0.046,0.12,0.072c0.037,0.033,0.104,0.041,0.183,0.041
		c0.06,0,0.115-0.008,0.163-0.021c0.008,0,0.008,0,0.01,0c0.051-0.017,0.09-0.032,0.12-0.069c0.005,0,0.005-0.006,0.013-0.006
		c0.031-0.024,0.056-0.053,0.072-0.094c0.008-0.007,0.008-0.019,0.02-0.019c0.016-0.048,0.021-0.084,0.029-0.145c0,0,0,0,0-0.004
		c0-0.025,0.01-0.039,0.01-0.07c0-0.111-0.049-0.219-0.137-0.3c-0.074-0.084-0.17-0.121-0.293-0.121
		c-0.279,0-0.423,0.14-0.423,0.421C81.179,60.302,81.179,60.316,81.191,60.341L81.191,60.341z"/>
	<path d="M90.512,59.887l-0.933,0.008l-0.752,0.446h0.998C90.212,60.083,90.512,59.887,90.512,59.887z"/>
	<path d="M104.441,60.341c0.023,0.226,0.146,0.335,0.354,0.335c0.099,0,0.165,0,0.208-0.007c0.066-0.01,0.143-0.063,0.191-0.144
		c0.033-0.059,0.072-0.122,0.074-0.186l0,0c0-0.025,0.008-0.051,0.008-0.081c0-0.271-0.121-0.404-0.36-0.404h-0.095
		c-0.258-0.007-0.392,0.134-0.392,0.404C104.43,60.291,104.441,60.316,104.441,60.341L104.441,60.341z"/>
	<path d="M105.539,60.271c0,0.031,0,0.046,0,0.07h0.01c0.001,0.063,0.04,0.147,0.111,0.243c0.025,0.017,0.064,0.046,0.113,0.072
		c0.045,0.032,0.102,0.04,0.176,0.04c0.265,0,0.418-0.122,0.427-0.355c0-0.024,0-0.039,0-0.071c0-0.112-0.036-0.218-0.119-0.3
		c-0.083-0.083-0.181-0.121-0.299-0.121C105.676,59.85,105.539,59.989,105.539,60.271z"/>
	<path d="M105.359,59.759h0.1c0.111,0,0.202-0.048,0.266-0.128c0.072-0.083,0.11-0.179,0.11-0.286c0-0.119-0.043-0.215-0.136-0.301
		c-0.075-0.086-0.168-0.138-0.291-0.138c-0.284,0-0.422,0.151-0.422,0.428C104.988,59.613,105.107,59.759,105.359,59.759z"/>
</g>
</svg>
