<svg height="20" viewBox="0 0 10 20" width="10" xmlns="http://www.w3.org/2000/svg"><path d="m.32306348 9.85309277h2.02788183v8.34852243c0 .1648379.13354688.2983848.29838477.2983848h3.4383623c.16483789 0 .29838477-.1335469.29838477-.2983848v-8.30917379h2.33125293c.15157715 0 .27912597-.1137461.29643359-.26431153l.35406543-3.07349316c.00971973-.08455078-.01705469-.16924609-.07363867-.23269531-.05662012-.06348536-.13766602-.09983496-.22272266-.09983496h-2.68524609v-1.9266377c0-.5807627.31269336-.87528125.92955273-.87528125h1.75569336c.16483789 0 .29838477-.13361914.29838477-.29838477v-2.82121386c0-.16483789-.13354688-.29838477-.29838477-.29838477h-2.41963379c-.01705468-.00083105-.054958-.0022041-.11081933-.0022041-.41982715 0-1.87912305.08241895-3.03186817 1.14288086-1.27722265 1.17518359-1.09966601 2.58223144-1.05724609 2.82620019v2.25295313h-2.12887305c-.16483789 0-.29838476.13354687-.29838476.29838477v3.03425293c0 .16480175.13358301.29842089.2984209.29842089z" fill="#00bfc3" fill-rule="evenodd" transform="translate(.604167 .75)"/></svg>