<svg height="20" viewBox="0 0 20 20" width="20" xmlns="http://www.w3.org/2000/svg"><g fill="#00bfc3" fill-rule="evenodd" transform="translate(.75 .75)"><path d="m12.9660199 0h-7.46441483c-3.03359782 0-5.50160507 2.46800725-5.50160507 5.50160507v7.46441483c0 3.0335979 2.46800725 5.5016051 5.50160507 5.5016051h7.46441483c3.0335979 0 5.5016051-2.4680072 5.5016051-5.5016051v-7.46441483c0-3.03359782-2.4680408-5.50160507-5.5016051-5.50160507zm3.6437627 12.9660199c0 2.0123777-1.631385 3.6437627-3.6437627 3.6437627h-7.46441483c-2.01237771 0-3.64376268-1.631385-3.64376268-3.6437627v-7.46441483c0-2.01241123 1.63138497-3.64376268 3.64376268-3.64376268h7.46441483c2.0123777 0 3.6437627 1.63135145 3.6437627 3.64376268z" fill-rule="nonzero"/><path d="m9.2338125 4.45742754c-2.6337029 0-4.77638496 2.14268206-4.77638496 4.77635145 0 2.63366941 2.14268206 4.77638491 4.77638496 4.77638491s4.776385-2.142682 4.776385-4.77638491c0-2.6337029-2.1426821-4.77635145-4.776385-4.77635145zm0 7.69492756c-1.61187953 0-2.91854257-1.3066631-2.91854257-2.9185426 0-1.61187953 1.30669656-2.91854257 2.91854257-2.91854257 1.6118795 0 2.9185426 1.30666304 2.9185426 2.91854257 0 1.611846-1.3066966 2.9185426-2.9185426 2.9185426z" fill-rule="nonzero"/><circle cx="14.019448" cy="4.493288" r="1.14452"/></g></svg>