<svg height="20" viewBox="0 0 20 20" width="20" xmlns="http://www.w3.org/2000/svg"><g fill="#00bfc3" fill-rule="evenodd" transform="translate(.75 .208333)"><path d="m2.22912378.01529045c1.20971248 0 2.22840254 1.01869006 2.22840254 2.22840253 0 1.27336258-1.08237622 2.26024562-2.22840254 2.22840254-1.17786939.03184308-2.22840253-.95503996-2.22840253-2.22840254-.03184308-1.24155555.98688304-2.22840253 2.22840253-2.22840253"/><path d="m3.47067934 18.1608694h-2.54676121c-.35016569 0-.63668129-.2865156-.63668129-.6366813v-11.14201266c0-.35016569.25467252-.63668129.60483821-.63668129h2.57856822c.3501657 0 .63668129.2865156.63668129.63668129v11.17385576c0 .3183226-.28647953.6048382-.63664522.6048382"/><path d="m18.4328158 9.62926803c0-2.35573879-1.7509006-4.20213255-4.1066394-4.20213255h-.6685244c-1.2733625 0-2.5149181.6048382-3.1834424 1.59172125-.2228295.22282943-.3183587.31835867-.3183587.31835867v-1.27336257c0-.12733626-.19102244-.31835868-.3183587-.31835868h-3.18344249c-.12733626 0-.31835868.12733626-.31835868.2865156v11.87422315c0 .1273363.19102242.2546726.31835868.2546726h3.50176509c.1273363 0 .3183587-.1273363.3183587-.2546726v-6.876266c0-1.17786943.8913538-2.16475248 2.0692232-2.19655949.6048382 0 1.1460263.22282943 1.5598782.63668128.3820087.38200878.5411881.92319691.5411881 1.52803511v6.8443869c0 .1273363.1910224.3183948.3183586.3183948h3.1834425c.1273363 0 .3183587-.1910585.3183587-.3183948v-8.21324267z"/></g></svg>