<?xml version="1.0" encoding="UTF-8"?>
<svg width="16px" height="16px" viewBox="0 0 16 16" version="1.1" xmlns="http://www.w3.org/2000/svg" xmlns:xlink="http://www.w3.org/1999/xlink">
    <!-- Generator: Sketch 55.2 (78181) - https://sketchapp.com -->
    <title>Fill 1</title>
    <desc>Created with Sketch.</desc>
    <g id="Symbols" stroke="none" stroke-width="1" fill="none" fill-rule="evenodd">
        <g id="header" transform="translate(-1702.000000, -29.000000)" fill="#0A090B">
            <g id="Group-5" transform="translate(1146.000000, 14.500000)">
                <g id="Group-4" transform="translate(556.000000, 10.500000)">
                    <g id="globe" transform="translate(8.000000, 12.000000) scale(1, -1) translate(-8.000000, -12.000000) translate(0.000000, 4.000000)">
                        <path d="M11.7063667,11.9758333 C12.0514667,10.7759667 12.2325667,9.53493333 12.2447667,8.2865 L15.4421,8.2865 C15.3840333,9.9328 14.7819667,11.5134 13.7301,12.7811667 C13.0895333,12.4341 12.4102667,12.1637667 11.7063667,11.9758333 Z M3.71836667,8.2865 C3.73056667,9.53493333 3.9117,10.7759667 4.25676667,11.9758333 C3.5529,12.1638333 2.87363333,12.4341667 2.23303333,12.7811667 C1.18123333,11.5133667 0.5792,9.93276667 0.521033333,8.2865 L3.71836667,8.2865 Z M8.24823333,4.0121 L8.24823333,0.574233333 C9.3893,0.736366667 10.3895667,1.9273 11.0189,3.68596667 C10.1090333,3.8897 9.18056667,3.999 8.24823333,4.0121 Z M8.24823333,7.75316667 L8.24823333,4.54543333 C9.23723333,4.53243333 10.2220667,4.41496667 11.1863667,4.19503333 C11.5212,5.35193333 11.6978333,6.54886667 11.7114333,7.75316667 L8.24823333,7.75316667 Z M11.1863667,11.8446333 C10.2220667,11.6247333 9.23723333,11.5072667 8.24823333,11.4942333 L8.24823333,8.2865 L11.7114333,8.2865 C11.6978667,9.4908 11.5212333,10.6877333 11.1863667,11.8446333 Z M8.24823333,12.0275667 C9.18056667,12.0405667 10.1090333,12.1498667 11.0189,12.3537 C10.3895667,14.1123667 9.3893,15.3033 8.24823333,15.4654333 L8.24823333,12.0275667 Z M7.7149,12.0275667 L7.7149,15.4654333 C6.57383333,15.3033 5.57356667,14.1123667 4.94423333,12.3537 C5.8541,12.1499667 6.7826,12.0406667 7.7149,12.0275667 Z M7.7149,8.2865 L7.7149,11.4942333 C6.72593333,11.5072333 5.74106667,11.6247 4.77676667,11.8446333 C4.44193333,10.6877333 4.2653,9.4908 4.2517,8.2865 L7.7149,8.2865 Z M4.77676667,4.19503333 C5.7411,4.41493333 6.72593333,4.5324 7.7149,4.54543333 L7.7149,7.75316667 L4.2517,7.75316667 C4.2653,6.54886667 4.4419,5.35193333 4.77676667,4.19503333 Z M7.7149,4.0121 C6.7826,3.9991 5.8541,3.8898 4.94423333,3.68596667 C5.57356667,1.9273 6.57383333,0.736366667 7.7149,0.574233333 L7.7149,4.0121 Z M12.2447667,7.75316667 C12.2325667,6.50473333 12.0514667,5.2637 11.7063667,4.06383333 C12.4102333,3.87583333 13.0895,3.6055 13.7301,3.2585 C14.7819,4.5263 15.3839333,6.1069 15.4421,7.75316667 L12.2447667,7.75316667 Z M10.0706333,0.8537 C10.1381,0.873433333 10.2058333,0.893166667 10.2725,0.914766667 C10.3287667,0.9329 10.3842333,0.952366667 10.4397,0.971833333 C10.5053,0.9945 10.5709,1.0177 10.6357,1.0425 C10.6911667,1.06356667 10.7458333,1.0857 10.8007667,1.1081 C10.8645,1.13476667 10.9282333,1.16143333 10.9914333,1.1881 C11.0458333,1.2121 11.0999667,1.2368 11.1538333,1.26223333 C11.2159667,1.29156667 11.2778333,1.32143333 11.3405,1.35236667 C11.3938333,1.37903333 11.4471667,1.4057 11.5005,1.43476667 C11.5607667,1.46703333 11.6205,1.5001 11.6802333,1.53423333 C11.7335667,1.56383333 11.7842333,1.59423333 11.8357,1.62516667 C11.8943667,1.66036667 11.9519667,1.69663333 12.0095667,1.7337 C12.0602333,1.76596667 12.1109,1.79876667 12.1607667,1.83236667 C12.2175667,1.87076667 12.2735667,1.9105 12.3293,1.9505 C12.3783667,1.98543333 12.4271667,2.02063333 12.4754333,2.05716667 C12.5303667,2.0985 12.5842333,2.14143333 12.6383667,2.18463333 C12.6853,2.22196667 12.7325,2.2593 12.7786333,2.29823333 C12.8319667,2.3425 12.8834333,2.38863333 12.9351667,2.4345 C12.9805,2.47476667 13.0261,2.5145 13.0703667,2.55556667 C13.1213,2.60303333 13.1706333,2.65236667 13.2202333,2.70116667 C13.2631667,2.74356667 13.3069,2.78543333 13.3490333,2.8289 C13.3567667,2.83716667 13.3642333,2.8457 13.3719667,2.8537 C12.7904667,3.1543 12.1777333,3.3902 11.5447667,3.55716667 C11.2149,2.50723333 10.6284,1.55613333 9.83836667,0.789966667 C9.85996667,0.795566667 9.88183333,0.8001 9.90343333,0.805966667 C9.95943333,0.819833333 10.0151667,0.837433333 10.0706333,0.8537 Z M2.6165,2.82916667 C2.65863333,2.78543333 2.70236667,2.74356667 2.7453,2.70116667 C2.7949,2.65236667 2.84423333,2.6033 2.8949,2.5561 C2.93943333,2.5145 2.9853,2.4745 3.0309,2.43396667 C3.08236667,2.38836667 3.13356667,2.34276667 3.18636667,2.29876667 C3.23276667,2.25956667 3.2805,2.22196667 3.32796667,2.1841 C3.3813,2.14143333 3.43463333,2.09876667 3.48956667,2.0577 C3.5381,2.02116667 3.58743333,1.9857 3.63703333,1.95103333 C3.69223333,1.91156667 3.7477,1.87103333 3.80396667,1.83423333 C3.85436667,1.8001 3.9053,1.76703333 3.9565,1.73423333 C4.01356667,1.6977 4.0709,1.6617 4.12876667,1.62756667 C4.18086667,1.59646667 4.2333,1.56586667 4.2861,1.53583333 C4.34513333,1.50223333 4.40443333,1.46943333 4.46396667,1.43743333 C4.5173,1.409 4.57063333,1.38116667 4.62396667,1.35396667 C4.68476667,1.3233 4.7461,1.2937 4.8077,1.26463333 C4.86103333,1.2393 4.9165,1.21396667 4.97143333,1.18996667 C5.0341,1.1633 5.09756667,1.13663333 5.16103333,1.10996667 C5.21623333,1.0873 5.27116667,1.06516667 5.3269,1.04383333 C5.39143333,1.0193 5.45676667,0.996366667 5.5221,0.973433333 C5.57783333,0.953966667 5.63356667,0.9345 5.6901,0.9161 C5.7565,0.894766667 5.82343333,0.875033333 5.89063333,0.855566667 C5.9469,0.8393 6.00263333,0.8225 6.05916667,0.8073 C6.08076667,0.8017 6.10236667,0.797166667 6.12396667,0.791566667 C5.33463333,1.558 4.74886667,2.5092 4.4197,3.55903333 C3.78676667,3.3921 3.17403333,3.1563 2.5925,2.85583333 C2.6013,2.8465 2.60876667,2.83716667 2.6165,2.82916667 Z M2.23303333,3.2585 C2.8736,3.60556667 3.55286667,3.8759 4.25676667,4.06383333 C3.9117,5.2637 3.73056667,6.50473333 3.71836667,7.75316667 L0.521033333,7.75316667 C0.579133333,6.10686667 1.18116667,4.52626667 2.23303333,3.2585 Z M5.8925,15.1859667 C5.82503333,15.1662333 5.7573,15.1465 5.69063333,15.1249 C5.63436667,15.1067667 5.5789,15.0873 5.52343333,15.0678333 C5.45783333,15.0451667 5.39223333,15.0219667 5.32743333,14.9971667 C5.27196667,14.9761 5.2173,14.9539667 5.16236667,14.9315667 C5.09863333,14.9049 5.0349,14.8782333 4.9717,14.8515667 C4.9173,14.8275667 4.86316667,14.8028667 4.8093,14.7774333 C4.74716667,14.7481 4.6853,14.7182333 4.62263333,14.6873 C4.5693,14.6606333 4.51596667,14.6339667 4.46263333,14.6049 C4.40236667,14.5726333 4.34263333,14.5395667 4.2829,14.5054333 C4.22956667,14.4758333 4.1789,14.4454333 4.12743333,14.4145 C4.06876667,14.3793 4.01116667,14.3430333 3.95356667,14.3059667 C3.9029,14.2737 3.85223333,14.2409 3.80236667,14.2073 C3.74556667,14.1689 3.6893,14.1289 3.63356667,14.0889 C3.58476667,14.0539667 3.53596667,14.0190333 3.48796667,13.9822333 C3.43276667,13.9406333 3.37863333,13.8977 3.32476667,13.8545 C3.27756667,13.8169 3.23063333,13.7795667 3.1845,13.7409 C3.13116667,13.6966333 3.0797,13.6505 3.02796667,13.6046333 C2.98263333,13.5643667 2.93703333,13.5246333 2.89276667,13.4835667 C2.84183333,13.4361 2.7925,13.3867667 2.7429,13.3379667 C2.69996667,13.2955667 2.65623333,13.2537 2.6141,13.2102333 C2.60636667,13.2019667 2.5989,13.1934333 2.59116667,13.1854333 C3.17266667,12.8848333 3.7854,12.6489333 4.41836667,12.4819667 C4.7476,13.5317667 5.33333333,14.4829333 6.12263333,15.2494333 C6.10103333,15.2438333 6.07916667,15.2393 6.05756667,15.2334333 C6.0037,15.2198333 5.94796667,15.2022333 5.8925,15.1859667 Z M13.3466333,13.2105 C13.3045,13.2539667 13.2610333,13.2958333 13.2181,13.3382333 C13.1685,13.3870333 13.1189,13.4363667 13.0679667,13.4838333 C13.0237,13.5251667 12.9781,13.5638333 12.9327667,13.6051667 C12.8810333,13.6510333 12.8295667,13.6969 12.7767667,13.7411667 C12.7301,13.7801 12.6826333,13.8177 12.6351667,13.8555667 C12.5818333,13.8982333 12.5285,13.9409 12.4735667,13.9819667 C12.4250333,14.0185 12.3757,14.0539667 12.3261,14.0886333 C12.2709,14.1281 12.2154333,14.1686333 12.1591667,14.2054333 C12.1087667,14.2395667 12.0578333,14.2726333 12.0066333,14.3051667 C11.9495667,14.3419667 11.8920667,14.3775333 11.8341,14.4118333 C11.7807667,14.4430333 11.7298333,14.4734333 11.6773,14.5035667 C11.6183,14.5371667 11.5589,14.5699667 11.4991667,14.6019667 C11.4458333,14.6304 11.3925,14.6582333 11.3391667,14.6854333 C11.2783667,14.7161 11.2170333,14.7457 11.1554333,14.7747667 C11.1021,14.8001 11.0466333,14.8254333 10.9917,14.8494333 C10.9290333,14.8761 10.8655667,14.9027667 10.8021,14.9294333 C10.7469,14.9518333 10.6919667,14.9742333 10.6365,14.9953 C10.5714333,15.0201 10.5061,15.0433 10.4405,15.0659667 C10.3850333,15.0854333 10.3295667,15.1049 10.2733,15.1230333 C10.2066333,15.1446333 10.1399667,15.1643667 10.0719667,15.1838333 C10.0162333,15.2003667 9.96023333,15.2169 9.90396667,15.2321 C9.88236667,15.2377 9.86076667,15.2422333 9.83916667,15.2478333 C10.6285333,14.4814 11.2142667,13.5302 11.5434333,12.4803667 C12.1763667,12.6473 12.7891,12.8831 13.3706333,13.1835667 C13.3618333,13.1931667 13.3543667,13.2025 13.3466333,13.2105 Z M15.981568,8.01983333 C15.981568,3.60156667 12.3998333,0.0198666667 7.98153333,0.0198666667 C7.69506667,0.0198666667 7.4088,0.0352666667 7.12396667,0.0659666667 C6.8629,0.0926333333 6.60503333,0.136366667 6.35063333,0.189433333 C6.3014,0.199733333 6.25216667,0.2106 6.2029,0.221966667 C4.704,0.563233333 3.33533333,1.3296 2.26103333,2.42916667 C2.16113333,2.53156667 2.06333333,2.637 1.9677,2.74543333 C-0.9343,6.07703333 -0.586,11.1303667 2.7456,14.0323667 C5.9352,16.8106667 10.7363667,16.6258 13.7029,13.6105 C13.803,13.5081 13.9007667,13.4026667 13.9962333,13.2942333 C15.2769333,11.8357667 15.9827,9.9608 15.981568,8.01983333 L15.981568,8.01983333 Z" id="Fill-1"></path>
                    </g>
                </g>
            </g>
        </g>
    </g>
</svg>