<svg height="49" viewBox="0 0 311 49" width="311" xmlns="http://www.w3.org/2000/svg"><g fill="none" fill-rule="evenodd"><g fill="#e42313" fill-rule="nonzero"><path d="m160.869565 41.7666667 9.202532-25.1740741s.380526-1.54 1.509163-1.54c1.214061 0 1.501397 1.54 1.501397 1.54l9.212886 25.1740741h6.681219l-11.547818-31.2433334c-.706692-1.8796296-3.064921-3.3496296-5.842507-3.3496296-2.777585 0-5.138403 1.43370371-5.852861 3.3496296l-11.547818 31.2433334z"/><path d="m86.9102066 7.1737037-9.2128858 25.1688889s-.3753493 1.5555555-1.5039861 1.5555555c-1.2140611 0-1.5013975-1.5555555-1.5013975-1.5555555l-9.1999426-25.1688889h-6.6967506l11.5581721 31.2355556c.7041037 1.877037 3.0597446 3.3574074 5.8399186 3.3574074s5.1409922-1.4337037 5.8554503-3.3574074l11.5426404-31.2355556z"/><path d="m271.522561 24.4092593c0 10.4351851-8.2318 18.3011111-18.379176 18.3011111s-18.355879-7.865926-18.355879-18.3011111c0-10.0566667 8.319813-18.30111115 18.363645-18.30111115 10.043831 0 18.37141 8.24444445 18.37141 18.30111115zm-5.894279 0c0-6.9014815-5.143581-12.7037037-12.505606-12.7037037s-12.503017 5.7944444-12.503017 12.7037037c-.064896 4.5171651 2.304118 8.7192908 6.199641 10.9968442s8.713818 2.2775534 12.609341 0 6.264536-6.4796791 6.199641-10.9968442z"/><path d="m129.058059 24.4092593c0 10.4351851-8.239566 18.3011111-18.379177 18.3011111-10.13961 0-18.3636444-7.865926-18.3636444-18.3011111 0-10.0566667 8.3275784-18.30111115 18.3636444-18.30111115s18.379177 8.24444445 18.379177 18.30111115zm-5.89428 0c0-6.9014815-5.151347-12.7037037-12.505606-12.7037037s-12.5030169 5.7944444-12.5030169 12.7037037c-.0648955 4.5171651 2.3041179 8.7192908 6.1996409 10.9968442s8.713818 2.2775534 12.609341 0 6.264537-6.4796791 6.199641-10.9968442z"/><path d="m150.955165 37.0922222c-3.339311-.0191792-6.533886-1.3677829-8.87934-3.7484515-2.345453-2.3806686-3.649166-5.5978916-3.623678-8.9422892 0-6.9014815 5.143581-12.7037037 12.503018-12.7037037l.020708-5.59740743c-10.033477 0-18.363644 8.24444443-18.363644 18.30111113 0 10.4351852 8.226623 18.3011111 18.363644 18.3011111z"/><path d="m231.764002 37.0922222c-3.33935-.0205593-6.533649-1.369434-8.879627-3.7496501-2.345979-2.380216-3.651296-5.5966256-3.628567-8.9410906 0-6.9014815 5.146169-12.7037037 12.508194-12.7037037l.023298-5.59740743c-10.04642 0-18.366233 8.24444443-18.366233 18.30111113 0 10.4351852 8.234388 18.3011111 18.366233 18.3011111z"/><path d="m198.352731 33.962963c0 1.7422222.517723 2.2114814 2.48766 2.2114814h10.768644v5.5922223h-14.933728c-2.050184 0-2.754288-.2333334-3.481689-1.0681482-.613502-.6922222-.717047-1.5192592-.717047-3.2459259v-30.27370371h5.87616z"/><path d="m307.160043 7.25925926c-3.12446 0-6.588029 2.73-8.850479 3.94074074-2.262451 1.2107407-3.644772 2.0922222-5.205708 2.0922222s-2.948434-.8737037-5.205707-2.0922222c-2.257274-1.21851852-5.738963-3.94074074-8.845303-3.94074074-3.655126 0-3.471334 3.54407404-3.471334 6.37777774v28.0311111h6.24892v-24.3962962c0-1.9703704.517723-2.5925926 3.624063-.6896297 0 0 5.392088 3.1292593 7.636418 3.1292593 2.244331 0 7.654539-3.1188889 7.654539-3.1188889 3.121871-1.9107407 3.639594-1.2807407 3.639594.6896296v24.3962963h6.24892v-28.0518518c0-2.8337037.170849-6.36740744-3.473923-6.36740744z"/></g><g fill-rule="evenodd" transform="translate(.001512 .255848)"><path d="m22.8766799 26.1730404c-.8645978 2.0740741-1.8793355 4.0677778-3.3211948 5.8203704-1.8819241 2.2918519-3.1348144 2.6107407-6.0987802 1.3611111-2.0191208-.6611111-3.97352615-1.9340741-5.78038039-3.4818518-1.35643499-1.1640741-1.76284776-2.6185186-1.20888385-4.2388889.92672466-2.7248148 2.25727349-5.2370371 4.28674874-7.3448148 1.000383-1.1284813 2.5991871-1.5088453 3.9994123-.9514815 2.5342555.9151852 4.9442573 2.1129629 6.950435 3.9796296 1.5350495 1.4155556 1.9673485 2.9555556 1.1726432 4.8559259z"/><path d="m27.1789604 40.6552627c.0647154-3.805926.4400647-7.6066667 1.5531698-11.2622223.6575086-2.1518518 2.1045451-2.5303703 3.9631717-1.2703703 3.0442651 2.0239262 5.8538569 4.3813128 8.3767626 7.0285185 1.6334169 1.7396296 1.4703341 3.2433333-.6704516 4.2777778-3.2331819 1.5555555-6.6630986 2.5925925-9.8729829 3.3703703-2.3478751.3007408-3.3729672-.2955555-3.3496696-2.144074z"/><path d="m27.0391751 9.71526265c2.1563174-3.62962963 7.1290495-5.0062963 10.7246377-2.96333333 3.9528172 2.24259259 5.4360944 7.27222218 3.259068 10.96925928-2.3426978 3.9562963-6.9064285 5.097037-10.9964424 2.7248148-.9244592-.5340924-1.7402722-1.2377015-2.4048246-2.0740741l-.0647154-.0829629c-1.9364426-2.4718226-2.1426179-5.8861687-.5177233-8.57370375z"/><g fill-rule="nonzero"><path d="m20.2751205 12.7434108c-1.3036511-.6517465-2.6684508-1.1727996-4.0744822-1.5555556-3.8207978-1.037037-7.24812591-.0751851-9.99982513 2.7792593-2.3926444 2.5321588-4.24961736 5.5225181-5.45939196 8.7914815-1.66189172 4.9285185-.48407126 9.1337037 3.07268765 12.1385185 2.58366885 2.1511743 5.53239757 3.8196816 8.70551694 4.9259259 3.2720111 1.1796297 6.4922499.7777778 9.1507589-1.2651852.1946933-3.1520593.6940433-6.277791 1.491043-9.3333333.4016483-1.6741663 1.2261806-3.2168478 2.3944702-4.48-3.7742027-2.9633333-5.7078991-7.3214815-5.2807774-12.0011111zm1.4392707 8.5737037c1.524695 1.4155556 1.956994 2.9555556 1.1622887 4.8559259-.8645978 2.0740741-1.8793355 4.0677778-3.3211948 5.8203704-1.8819241 2.2918519-3.1348144 2.6107407-6.0987802 1.3611111-2.0191208-.6611111-3.97352615-1.9340741-5.78038039-3.4818518-1.35643499-1.1640741-1.76284776-2.6185186-1.20888385-4.2388889.92672466-2.7248148 2.25727349-5.2370371 4.28674874-7.3448148 1.000383-1.1284813 2.5991871-1.5088453 3.9994123-.9514815 2.5446099.9151852 4.9546118 2.1103703 6.9607895 3.9796296z" fill="#e42313"/><path d="m27.6293796 18.3822997-.0647154-.082963z" fill="#e42313"/><g transform="translate(20.216775)"><path d="m9.21687032 22.5226701c-.23308508-1.5171453-.85770127-2.9470324-1.81203147-4.1481482.66455248.8363726 1.48036546 1.5399817 2.40482462 2.0740741 4.08224803 2.3644444 8.64597873 1.2314815 10.98867653-2.7248148 2.1873809-3.6970371.6937492-8.7266667-3.259068-10.96925929-3.5955882-2.04296296-8.56832024-.66888889-10.72463769 2.96333333-1.62971084 2.68999626-1.4234369 6.11010656.51772328 8.58407406-.3457544-.4342489-.72298801-.842391-1.12863675-1.2211111-1.83567721-1.7330857-3.91052331-3.1929477-6.160907-4.3348148.20077452-2.0057132.78149959-3.95470232 1.71107544-5.7425926 3.22023878-6.36222222 12.47454232-8.91851852 18.85289312-5.44444445 6.3783508 3.47407408 8.8453022 12.53000005 5.1953531 19.05555555-1.5015798 2.5941154-3.811358 4.623285-6.5750856 5.7762963-.82318-.6740741-1.6567145-1.3377778-2.5057807-1.9755555-2.4747172-1.8562963-5.148758-2.4292593-7.50439888-1.8925926z" fill="#24b7c3"/><path d="m6.21925254 17.0782256c.40564874.3787201.78288235.7868622 1.12863675 1.2211111l.06471541.082963c.9543302 1.2011158 1.57894639 2.6310029 1.81203147 4.1481481-1.4854007.3422647-2.83644182 1.1171493-3.88292458 2.2270371-3.77679131-2.9762963-5.71048775-7.3344445-5.28336605-12.0140741 2.25038368 1.1418671 4.32522979 2.6017291 6.160907 4.3348148z" fill="#904b99"/><path d="m11.4715552 48.505633c3.6653684-.8345156 7.2440055-2.0133129 10.688397-3.5207407 3.4661574-1.5062963 5.5784684-4.9570371 5.1772328-9.0611111-.2122665-1.8433334-1.4340935-3.7385185-3.1684664-5.2707408-1.6282397-1.4388889-3.2642453-2.8725926-4.9442573-4.2518518-3.2513022 1.4025926-6.9892643 1.6514815-10.30787048.4148148-1.01214901 4.5707407-3.48168904 8.4233333-7.10057475 11.4592593-.12166497.1011111-.24332994.197037-.36499491.2903703-.03624063.5997531-.05953818 1.2003704-.06989264 1.8018519-.04094328 2.53529 1.08814999 4.9477367 3.06000766 6.5380827s4.56596842 2.1807442 7.03041902 1.6000654zm-4.50936976-7.8503703c.06471541-3.805926.44006479-7.6066667 1.55316984-11.2622223.65750856-2.1518518 2.10454512-2.5303703 3.96317172-1.2703703 3.0442651 2.0239262 5.8538569 4.3813128 8.3767626 7.0285185 1.6334169 1.7396296 1.4703341 3.2433333-.6704517 4.2777778-3.2331818 1.5555555-6.6630985 2.5925925-9.8729829 3.3703703-2.34787501.3007408-3.3729671-.2955555-3.34966956-2.144074z" fill="#ff9a4b"/><path d="m5.33912297 24.7497071c.51452885.4039752 1.0530905.7762661 1.61270801 1.1148148.62514562.377128 1.28372385.6956404 1.96734845.9514815-1.012149 4.5707407-3.48168904 8.4233333-7.10057474 11.4592593-.12166497.1011111-.24332994.197037-.36499492.2903703.19469329-3.1520594.69404333-6.277791 1.49104304-9.3333333.40123587-1.6750889 1.22579272-3.218709 2.39447016-4.4825926z" fill="#fa764e"/><path d="m8.91917943 26.8160034c.12425359-.5574074.22779824-1.1225926.30545674-1.7007407.12440565-.8597066.12440565-1.7328861 0-2.5925926 2.35564093-.5366667 5.02968163.0362963 7.50698753 1.9029629.8490662.6377778 1.6826006 1.2962963 2.5057806 1.9755556-3.2616566 1.4025926-7.0125617 1.6514815-10.31822487.4148148z" fill="#6bc172"/><path d="m6.96218544 25.8645219c-.55961751-.3385487-1.09817916-.7108396-1.612708-1.1148148 1.04648276-1.1098877 2.39752387-1.8847724 3.88292458-2.227037.12440565.8597065.12440565 1.732886 0 2.5925926-.0776585.5781481-.18120315 1.1433333-.30545674 1.7007407-.68273523-.2559872-1.34044093-.5744968-1.96475984-.9514815z" fill="#694c96"/></g></g></g></g></svg>